<?xml version="1.0" encoding="utf-8"?>
<!-- Generator: Adobe Illustrator 26.0.1, SVG Export Plug-In . SVG Version: 6.00 Build 0)  -->
<svg version="1.1" id="Layer_1" xmlns="http://www.w3.org/2000/svg" xmlns:xlink="http://www.w3.org/1999/xlink" x="0px" y="0px"
	 viewBox="0 0 81.2 55" style="enable-background:new 0 0 81.2 55;" xml:space="preserve">
<style type="text/css">
	.st0{fill:#B4E66E;}
	.st1{fill:#21456B;}
	.st2{fill:none;stroke:#21456B;stroke-width:2;stroke-linecap:round;}
	.st3{fill:#B4E66E;stroke:#21456B;stroke-width:2;}
</style>
<g id="Group_2454" transform="translate(1.342 2.102)">
	<g id="Group_217" transform="translate(4.122 48.271) rotate(-87)">
		<g id="Path_90" transform="translate(3.303 29.649)">
			<path class="st0" d="M11.7,42.5c-2.3,0-4.6,0-6.9,0c-1.5,0-2.4-0.9-2.4-2.4c0-0.6,0-1.1,0-1.7c0-1.3,0-2.5-0.1-3.7
				c-0.1-1.1-0.4-2.3-0.9-3.6C0,27.6-0.7,24.3-1,21.2c0-0.1,0-0.3,0-0.4c0-0.1,0-0.1,0-0.2v-1l1,0c0,0,0.1,0,0.1,0
				c1.6,0,2.8-0.6,4.3-2.2c1.4-1.5,3-3,4.4-4.4c0.3-0.3,0.6-0.6,0.9-0.9c0.3-0.3,0.8-0.6,1.2-0.8c1.1-0.5,1.8-1.2,2.1-2.3
				c0.3-0.8,1.1-1.4,1.9-1.4c0.4,0,0.9,0.2,1.2,0.5c1,0.9,2.2,1.4,3.5,1.9c0.4,0.1,0.8,0.3,1.2,0.5c0.1,0,0.2,0.1,0.3,0.1
				c0.1,0,0.3,0.1,0.4,0.2c1.1,0.5,1.8,1.4,1.8,2.6c0,0.8-0.3,2-1.7,2.6c-0.4,0.2-0.8,0.4-1.1,0.5c-1,0.5-2,0.9-2.9,1.5
				c-3.5,2.1-5.5,5.2-6.1,9.2c0,0.1,0,0.3,0.1,0.4c0,0,0,0,0,0c0.1,0,0.1-0.1,0.2-0.2c0.7-4.9,3.6-8.3,8.9-10.6
				c0.2-0.1,0.3-0.1,0.4-0.2c0.3-0.1,0.5-0.2,0.8-0.3c1.2-0.7,1.8-1.6,1.8-2.9c0-1.3-0.6-2.2-1.8-2.7c-0.8-0.4-1.6-0.7-2.4-1
				c-0.3-0.1-0.5-0.2-0.8-0.3c-3.3-1.4-5-4.6-4.3-8.1C14.8-0.7,16-1,16.7-1c0.4,0,0.7,0.1,1.2,0.2c1,0.4,2,0.8,3,1.1
				c1.9,0.7,3.8,1.4,5.7,2.1c3.2,1.2,5.1,3.4,5.6,6.8c0.2,1.2,0.4,2.4,0.6,3.5c0.2,1.5,0.5,3.1,0.7,4.6c0.3,2.3-0.3,4.5-1.9,6.4
				l-1.2,1.4c-2.3,2.8-4.7,5.7-7,8.6c-1.5,1.8-2.3,4-2.3,6.4c0,1.5-0.9,2.4-2.4,2.4C16.3,42.5,14,42.5,11.7,42.5z"/>
			<path class="st1" d="M16.7,0c-0.6,0-1,0.4-1.2,1.3c-0.6,3,0.9,5.8,3.7,7c1.1,0.4,2.2,0.9,3.2,1.3c1.5,0.7,2.4,1.9,2.4,3.6
				c0,1.7-0.8,3-2.3,3.8c-0.4,0.2-0.9,0.4-1.3,0.6c-4.4,1.9-7.6,4.8-8.3,9.8c-0.1,0.7-0.8,1.2-1.4,1c-0.6-0.1-1-0.7-0.9-1.5
				c0.6-4.3,2.9-7.6,6.6-9.9c1.3-0.8,2.7-1.4,4.1-2c0.7-0.4,1.2-0.9,1.2-1.7c0-0.8-0.4-1.3-1.2-1.6c-0.2-0.1-0.5-0.2-0.7-0.3
				c-1.7-0.7-3.6-1.2-5-2.5c-0.5-0.4-1.3-0.1-1.5,0.5c-0.5,1.3-1.4,2.2-2.7,2.8c-0.3,0.2-0.7,0.4-1,0.6c-1.8,1.7-3.6,3.4-5.3,5.2
				c-1.4,1.5-3,2.6-5.2,2.5c0,0.3,0,0.4,0,0.5c0.3,3.3,1.1,6.6,2.3,9.7c0.5,1.2,0.8,2.5,1,3.9c0.2,1.8,0.1,3.6,0.2,5.5
				c0,1,0.4,1.4,1.4,1.4c4.6,0,9.2,0,13.8,0c1,0,1.4-0.4,1.4-1.4c0.1-2.6,0.9-4.9,2.5-7c2.7-3.3,5.4-6.7,8.1-10
				c1.3-1.7,2-3.5,1.7-5.7c-0.4-2.7-0.9-5.4-1.3-8.1c-0.5-3-2.1-5-5-6c-2.9-1.1-5.8-2.2-8.7-3.2C17.2,0.1,16.9,0,16.7,0 M16.7-2
				c0.5,0,1,0.1,1.5,0.3c1,0.4,2,0.8,3,1.1c1.9,0.7,3.8,1.4,5.7,2.1c1.8,0.6,3.2,1.6,4.2,2.9c1.1,1.3,1.7,2.9,2,4.7
				c0.2,1.2,0.4,2.4,0.6,3.5c0.2,1.5,0.5,3.1,0.7,4.6c0.4,2.6-0.3,5-2.1,7.2l-1.2,1.4c-2.3,2.8-4.7,5.7-7,8.6
				c-1.4,1.7-2,3.6-2.1,5.8c-0.1,2.1-1.4,3.3-3.4,3.3c-2.3,0-4.7,0-6.9,0c-2.3,0-4.6,0-6.9,0c-1,0-1.9-0.3-2.5-0.9
				c-0.6-0.6-0.9-1.4-0.9-2.4c0-0.6,0-1.1,0-1.7c0-1.3,0-2.5-0.1-3.6c-0.1-1-0.4-2.1-0.9-3.4c-1.4-3.7-2.2-7-2.4-10.2
				c0-0.2,0-0.3,0-0.5c0-0.1,0-0.1,0-0.2c0-0.5,0.2-1.1,0.6-1.4c0.4-0.4,0.9-0.6,1.4-0.6c0,0,0.1,0,0.1,0c1.3,0,2.3-0.5,3.6-1.9
				c1.5-1.5,3-3,4.5-4.4c0.3-0.3,0.6-0.6,0.9-0.8c0.4-0.4,0.9-0.8,1.5-1c0.8-0.4,1.3-0.9,1.6-1.7c0.4-1,1.2-1.7,2.2-2
				c-0.1-0.1-0.1-0.2-0.2-0.3c-0.9-1.7-1.2-3.6-0.8-5.5C13.7,0.1,14-0.5,14.4-1C15-1.6,15.8-2,16.7-2z"/>
		</g>
		<g id="Path_91" transform="translate(21.544 0)">
			<path class="st0" d="M3.8,30l-0.8-1.3c-0.4-0.6-0.7-1.2-1.1-1.7c-0.8-1.3-1.6-2.5-2.4-3.7c-1-1.4-0.3-2.3,0.3-2.9
				c1.1-1.1,2.3-2.2,3.4-3.3C4.1,16.1,5,15.2,6,14.3c0.9-0.8,1.2-1.7,1-2.9C6.4,8.2,7.3,5,9.3,2.6c1-1.1,2.1-2,3.5-2.6
				c1.4-0.6,2.9-1,4.5-1c0.1,0,0.3,0,0.4,0c0.1,0,0.3,0,0.4,0c0.1,0,0.2,0,0.2,0L20-0.8l-1,1.4c0,0.1-0.1,0.1-0.1,0.2
				c-0.1,0.1-0.2,0.3-0.3,0.4c-0.4,0.4-0.8,0.8-1.1,1.2c-0.5,0.5-1.1,1.1-1.6,1.6c-1.2,1.2-1.2,2.6,0,3.8c1.1,1.1,2.1,2.2,3,3
				c0.6,0.6,1.3,0.9,2,0.9c0.7,0,1.4-0.3,2.1-1c0.7-0.7,1.4-1.4,2.1-2c0.3-0.3,0.7-0.6,1-0.9l1.5-1.4l0.2,2c0.2,1.8-0.1,3.6-0.9,5.4
				c-1.7,3.7-5.4,6.1-9.6,6.1c-0.7,0-1.4-0.1-2-0.2c-0.2,0-0.4-0.1-0.6-0.1c-0.8,0-1.4,0.3-2,0.9c-1.2,1.1-2.3,2.3-3.5,3.4
				c-1.3,1.3-2.7,2.7-4.1,4c0,0-0.1,0.2-0.2,0.2c-0.1,0.1-0.1,0.2-0.2,0.3L3.8,30z"/>
			<path class="st1" d="M3.8,28.1c0.2-0.3,0.3-0.5,0.5-0.7c2.5-2.5,5-5,7.5-7.5c1-1,2.2-1.4,3.6-1.1c4.5,0.8,8.7-1.4,10.5-5.3
				c0.7-1.5,1-3.2,0.8-4.8c-1.1,1-2.1,2-3.1,3c-1.7,1.7-3.8,1.7-5.5,0c-1-1-2-2-3-3.1c-1.5-1.6-1.6-3.6,0-5.2
				c0.9-0.9,1.8-1.9,2.7-2.8c0.1-0.1,0.2-0.3,0.4-0.5C17.9,0,17.7,0,17.6,0C11.5-0.2,6.9,5.1,7.9,11.2c0.3,1.5-0.2,2.7-1.2,3.8
				c-2.1,2-4.1,4.1-6.2,6.1c-0.6,0.5-0.7,0.9-0.2,1.6C1.5,24.4,2.5,26.1,3.8,28.1 M3.8,30.1c-0.7,0-1.3-0.3-1.7-0.9
				C1.7,28.6,1.4,28,1,27.5c-0.8-1.3-1.6-2.5-2.4-3.6c-0.2-0.3-0.8-1.2-0.6-2.3c0.1-0.8,0.6-1.4,1.1-1.8c1.1-1.1,2.3-2.2,3.4-3.3
				c0.9-0.9,1.8-1.8,2.8-2.8c0.6-0.6,0.8-1.2,0.7-2.1C5.4,8.1,6.3,4.6,8.5,2c1.1-1.2,2.3-2.2,3.8-2.9C13.9-1.6,15.5-2,17.2-2
				c0.1,0,0.3,0,0.4,0c0.2,0,0.3,0,0.5,0c0.1,0,0.1,0,0.2,0c0.7,0.1,1.3,0.5,1.6,1.2s0.2,1.4-0.2,2c0,0-0.1,0.1-0.1,0.2
				c-0.1,0.2-0.2,0.3-0.4,0.5c-0.4,0.4-0.8,0.8-1.1,1.2c-0.5,0.5-1.1,1.1-1.6,1.6c-0.8,0.8-0.8,1.6,0,2.4c1.1,1.1,2.1,2.1,3,3
				c0.3,0.3,0.8,0.7,1.3,0.7c0.6,0,1.1-0.4,1.4-0.7c0.7-0.7,1.4-1.4,2.2-2.1c0.3-0.3,0.7-0.6,1-0.9c0.5-0.5,1.3-0.7,2.1-0.4
				c0.7,0.3,1.2,0.9,1.3,1.7c0.2,2-0.1,4-1,5.9c-1.9,4.1-5.9,6.7-10.5,6.7c-0.7,0-1.5-0.1-2.2-0.2c-0.2,0-0.3,0-0.5,0
				c-0.4,0-0.8,0.1-1.3,0.6c-1.2,1.1-2.3,2.3-3.5,3.4c-1.3,1.3-2.7,2.6-4,4c0,0,0,0.1-0.1,0.1c-0.1,0.1-0.1,0.2-0.2,0.4
				C5.1,29.8,4.5,30.1,3.8,30.1z"/>
		</g>
		<g id="Path_92" transform="translate(3.964 30.168)">
			<path class="st0" d="M9.1,10.5c-0.7,0-1.3-0.2-1.8-0.6C4.8,8.2,2.6,6.6,0.5,5.2c-1.2-0.8-1.7-2-1.4-3.3c0.2-1.3,1-2.2,2.2-2.6
				C1.5-0.8,1.8-0.9,2-0.9c0.1,0,0.2,0,0.4-0.1L2.7-1L3-0.9c0.1,0,0.2,0.1,0.3,0.1c0.4,0.1,0.8,0.3,1.2,0.6C7,2.1,9.5,4.4,11.8,6.5
				c0.5,0.4,0.5,1.1,0.4,1.6C11.9,9.5,10.6,10.5,9.1,10.5z"/>
			<path class="st1" d="M2.6,0c-0.4,0.1-0.7,0.1-1,0.2C0.7,0.5,0.2,1.1,0,2c-0.2,1,0.2,1.8,1,2.4C3.3,6,5.6,7.6,7.8,9.1
				c1.3,0.9,3,0.2,3.4-1.3c0.1-0.2,0-0.5-0.1-0.6C8.7,5,6.3,2.8,3.8,0.6C3.4,0.3,2.9,0.2,2.6,0 M2.6-2c0.3,0,0.6,0.1,0.8,0.2
				c0,0,0.1,0,0.2,0.1c0.4,0.1,1,0.4,1.6,0.8c2.6,2.3,5.1,4.6,7.4,6.7c0.8,0.7,0.9,1.8,0.7,2.6c-0.5,1.9-2.2,3.1-4.1,3.1
				c-0.9,0-1.7-0.3-2.4-0.8C4.2,9,2,7.5-0.1,6c-1.5-1-2.1-2.6-1.8-4.3C-1.7,0-0.6-1.2,1-1.7c0.3-0.1,0.6-0.1,0.9-0.2
				c0.1,0,0.2,0,0.4-0.1C2.3-2,2.4-2,2.6-2z"/>
		</g>
		<g id="Path_93" transform="translate(7.913 23.808)">
			<path class="st0" d="M8.6,13l-0.5-0.5c-0.8-0.7-1.5-1.5-2.3-2.2C3.9,8.5,1.9,6.6,0,4.7c-0.6-0.6-1-1.5-1-2.4
				c0-0.9,0.4-1.8,1.1-2.4C0.8-0.7,1.6-1,2.4-1c0.9,0,1.8,0.4,2.5,1.1c1.4,1.5,2.8,3.1,4.2,4.7l0.1,0.1c0.3,0.3,0.6,0.9,0.4,1.5
				c-0.5,1.7-0.4,3.3,0.3,4.9l0.3,0.8l-0.8,0.4l-0.2,0.1L8.6,13z"/>
			<path class="st1" d="M8.8,11.8L9,11.7C8.3,9.9,8.2,8,8.7,6.1c0-0.2-0.1-0.4-0.2-0.6C7,4,5.6,2.4,4.2,0.8c-0.9-1-2.4-1-3.4-0.1
				C-0.2,1.5-0.3,3,0.7,4C3.3,6.6,6.1,9.2,8.8,11.8 M8.8,13.8c-0.5,0-1-0.2-1.4-0.6c-0.8-0.7-1.5-1.5-2.3-2.2
				C3.2,9.2,1.2,7.3-0.7,5.4C-1.6,4.6-2,3.5-2,2.3C-2,1.1-1.4,0-0.6-0.8C0.3-1.6,1.3-2,2.4-2c1.2,0,2.4,0.5,3.2,1.4
				C7.1,1,8.5,2.6,9.9,4.1L10,4.3c0.5,0.5,0.9,1.5,0.6,2.4c-0.4,1.4-0.3,2.8,0.2,4.3c0.4,0.9,0,2-0.9,2.5l-0.2,0.1
				C9.4,13.7,9.1,13.8,8.8,13.8z"/>
		</g>
		<g id="Path_94" transform="translate(1.162 36.793)">
			<path class="st0" d="M7.1,8C6.7,8,6.3,7.9,6,7.7C4.4,7.1,2.8,6.5,0.9,5.6c-1.4-0.7-2.2-2.4-1.8-4C-0.5,0.2,0.7-0.8,2.3-1l0.2,0
				l0.2,0.1c0.1,0,0.3,0.1,0.4,0.1c0.4,0.1,0.8,0.3,1.2,0.5C5.3,0.4,6.2,1,7.1,1.7c0.8,0.5,1.6,1.1,2.4,1.7c0.5,0.3,1.1,1,0.8,2.1
				C9.9,6.9,8.6,8,7.1,8z"/>
			<path class="st1" d="M2.4,0c-1.1,0.1-2,0.8-2.3,1.8c-0.3,1.1,0.2,2.4,1.2,2.8c1.7,0.8,3.3,1.5,5,2.2c1.3,0.5,2.6-0.3,3-1.6
				c0.1-0.4,0-0.7-0.4-1C7.2,3,5.5,1.8,3.8,0.6C3.3,0.3,2.8,0.2,2.4,0 M2.4-2c0.3,0,0.5,0,0.7,0.1c0.1,0,0.2,0.1,0.4,0.1
				c0.4,0.1,0.9,0.3,1.4,0.7c1,0.6,1.9,1.3,2.8,1.9C8.5,1.4,9.3,2,10.1,2.5c1.1,0.7,1.5,1.9,1.2,3.1C10.7,7.6,9,9,7.1,9
				c-0.5,0-1-0.1-1.5-0.3C4,8.1,2.4,7.4,0.4,6.5C-0.5,6-1.2,5.2-1.6,4.2C-2,3.3-2.1,2.3-1.9,1.3C-1.6,0.4-1.1-0.4-0.3-1
				c0.7-0.5,1.6-0.9,2.5-1C2.2-2,2.3-2,2.4-2z"/>
		</g>
		<g id="Path_95" transform="translate(13.946 20.236)">
			<path class="st0" d="M8.5,8.7L7.9,8.5c-0.1,0-0.3-0.1-0.4-0.2C7.3,8.3,7.1,8.2,7,8.2l0,0c-0.2,0-0.4,0-0.6,0C6,8.2,5.5,8.2,5,8.3
				C4.8,8.4,4.5,8.4,4.3,8.4C3.6,8.4,3.2,8,3,7.7C2.3,7,1.6,6.2,1,5.5C0.6,5.1,0.2,4.7-0.2,4.2c-0.7-0.8-1-1.9-0.7-2.9
				c0.3-1,1.1-1.8,2.2-2.1C1.7-0.9,2.1-1,2.4-1c1,0,1.9,0.4,2.5,1.3C5.9,1.8,7,3.4,7.9,5c0.4,0.6,0.8,1.3,1.2,1.9l0.4,0.6L9,8.1
				L8.9,8.2L8.5,8.7z"/>
			<path class="st1" d="M8.2,7.5l0.1-0.2C6.9,5.2,5.5,3,4.1,0.8C3.5,0,2.5-0.1,1.6,0.1C0,0.6-0.5,2.4,0.6,3.6
				c1.1,1.2,2.1,2.3,3.2,3.5c0.3,0.4,0.6,0.4,1,0.3c0.7-0.2,1.5-0.2,2.3-0.2C7.4,7.2,7.8,7.4,8.2,7.5 M8.2,9.5c-0.2,0-0.4,0-0.6-0.1
				C7.4,9.4,7.2,9.3,7.1,9.3C7,9.2,7,9.2,6.9,9.2c-0.2,0-0.3,0-0.5,0c-0.3,0-0.8,0-1.1,0.1C4.9,9.4,4.6,9.4,4.3,9.4
				c-0.8,0-1.5-0.3-2.1-1c-0.6-0.7-1.3-1.5-2-2.2c-0.4-0.4-0.8-0.9-1.2-1.3c-1-1.1-1.3-2.5-0.9-3.9C-1.5-0.3-0.4-1.4,1-1.8
				C1.5-1.9,2-2,2.4-2C3.8-2,5-1.4,5.7-0.3c1.1,1.6,2.1,3.2,3.1,4.7C9.2,5,9.6,5.7,10,6.3c0.5,0.8,0.4,1.8-0.2,2.4L9.6,8.9
				C9.3,9.3,8.7,9.5,8.2,9.5z"/>
		</g>
		<g id="Path_96" transform="translate(0 43.04)">
			<path class="st0" d="M3.6,5.8c-0.8,0-1.7-0.2-2.5-0.7c-1.9-1.2-2.7-3.7-1.7-5.6l0.4-0.8l0.9,0.4l1.1,0.5L7.3,2l1.1,0.5l-0.7,1
				C6.7,5,5.2,5.8,3.6,5.8z"/>
			<path class="st1" d="M0.3,0c-0.7,1.3-0.1,3.3,1.4,4.2c1.8,1.1,3.9,0.6,5.2-1.3C4.7,1.9,2.5,1,0.3,0 M0.3-2c0.3,0,0.5,0.1,0.8,0.2
				l6.6,2.9c0.5,0.2,1,0.7,1.1,1.3C9,2.9,8.9,3.5,8.5,4c-1.2,1.8-3,2.8-4.9,2.8c-1,0-2.1-0.3-3-0.9c-1.1-0.7-2-1.8-2.4-3.1
				c-0.4-1.3-0.3-2.7,0.3-3.8C-1.1-1.6-0.4-2,0.3-2z"/>
		</g>
	</g>
	<line id="Line_28" class="st2" x1="6.2" y1="33.2" x2="0" y2="36.3"/>
	<line id="Line_30" class="st2" x1="6.7" y1="25.9" x2="0" y2="24.1"/>
	<line id="Line_29" class="st2" x1="12.9" y1="36.9" x2="9.3" y2="46.2"/>
	<path id="Path_97" class="st3" d="M68.4,34.8c0,4,0,7.9,0,11.9c0,1.5,0.4,1.8,1.8,1.8c2.3,0,4.6,0,6.9,0c1.4,0,1.7-0.3,1.7-1.7
		c0-8,0-16.1,0-24.1c0-1.3-0.3-1.7-1.7-1.7c-2.4,0-4.8,0-7.2,0c-1.2,0-1.6,0.4-1.6,1.6C68.4,26.7,68.4,30.8,68.4,34.8z"/>
</g>
</svg>
