<?xml version="1.0" encoding="utf-8"?>
<!-- Generator: Adobe Illustrator 23.1.0, SVG Export Plug-In . SVG Version: 6.00 Build 0)  -->
<svg version="1.1" id="Layer_1" xmlns="http://www.w3.org/2000/svg" xmlns:xlink="http://www.w3.org/1999/xlink" x="0px" y="0px"
	 viewBox="0 0 24 24" style="enable-background:new 0 0 24 24;" xml:space="preserve">
<style type="text/css">
	.st0{fill:none;}
	.st1{fill:#FFFFFF;}
</style>
<path class="st0" d="M0,0h24v24H0V0z"/>
<circle class="st1" cx="12" cy="4" r="2"/>
<path class="st1" d="M19,13v-2c-1.5,0-3.1-0.8-4.1-1.8l-1.3-1.4c-0.2-0.2-0.4-0.3-0.6-0.4c0,0,0,0,0,0h0C12.6,7.1,12.3,7,11.8,7
	c-1,0.1-1.8,1-1.8,2.1V15c0,1.1,0.9,2,2,2h5v5h2v-5.5c0-1.1-0.9-2-2-2h-3v-3.4C15.3,12.1,17.3,13,19,13z"/>
<path class="st1" d="M12.8,18c-0.4,1.2-1.5,2-2.8,2c-1.7,0-3-1.3-3-3c0-1.3,0.8-2.4,2-2.8v-2.1c-2.3,0.5-4,2.5-4,4.9
	c0,2.8,2.2,5,5,5c2.4,0,4.4-1.7,4.9-4H12.8z"/>
</svg>
