<?xml version="1.0" encoding="utf-8"?>
<!-- Generator: Adobe Illustrator 25.4.1, SVG Export Plug-In . SVG Version: 6.00 Build 0)  -->
<svg version="1.1" id="Layer_1" xmlns="http://www.w3.org/2000/svg" xmlns:xlink="http://www.w3.org/1999/xlink" x="0px" y="0px"
	 viewBox="0 0 30 30" style="enable-background:new 0 0 30 30;" xml:space="preserve">
<style type="text/css">
	.st0{fill:none;}
	.st1{fill:url(#SVGID_1_);}
	.st2{fill:#FFFFFF;}
</style>
<path class="st0" d="M6,6h18v18H6V6z"/>
<g>
	
		<linearGradient id="SVGID_1_" gradientUnits="userSpaceOnUse" x1="15" y1="2" x2="15" y2="32" gradientTransform="matrix(1 0 0 -1 0 32)">
		<stop  offset="0" style="stop-color:#B1E26E"/>
		<stop  offset="1" style="stop-color:#7EA770"/>
	</linearGradient>
	<path class="st1" d="M15,30L15,30C6.7,30,0,23.3,0,15l0,0C0,6.7,6.7,0,15,0l0,0c8.3,0,15,6.7,15,15l0,0C30,23.3,23.3,30,15,30z"/>
</g>
<g id="Group_139" transform="translate(-6169 -1566)">
	<path id="Path_78" class="st2" d="M6189,1588.9c-5.8-0.2-10.8-4.2-12.2-9.9c-0.2-1-0.4-2-0.3-3c0-0.4,0.1-0.7,0.4-1
		c0.3-0.3,0.6-0.6,0.9-0.9c0.7-0.8,1.9-0.8,2.7-0.1c0,0,0,0,0,0c0.3,0.3,0.5,0.6,0.6,1c0.2,0.6,0.3,1.2,0.5,1.8
		c0.2,0.7,0,1.4-0.5,1.9c-0.2,0.2-0.4,0.4-0.6,0.6c-0.1,0.1-0.1,0.1-0.1,0.2c0.7,2.4,2.6,4.4,5,5.2c0.3,0.2,0.6,0.1,0.8-0.2
		c0.1-0.1,0.2-0.2,0.3-0.3c0.5-0.5,1.2-0.7,1.9-0.5c0.6,0.2,1.3,0.3,1.9,0.5c1.1,0.3,1.7,1.5,1.3,2.5c0,0,0,0.1,0,0.1
		c-0.1,0.2-0.2,0.4-0.4,0.6c-0.3,0.3-0.6,0.6-0.9,0.9c-0.3,0.3-0.7,0.4-1,0.4C6189.3,1588.9,6189.2,1588.9,6189,1588.9z"/>
</g>
</svg>
