<?xml version="1.0" encoding="utf-8"?>
<!-- Generator: Adobe Illustrator 25.4.1, SVG Export Plug-In . SVG Version: 6.00 Build 0)  -->
<svg version="1.1" id="Layer_1" xmlns="http://www.w3.org/2000/svg" xmlns:xlink="http://www.w3.org/1999/xlink" x="0px" y="0px"
	 viewBox="0 0 14 14" style="enable-background:new 0 0 14 14;" xml:space="preserve">
<g id="Group_140" transform="translate(0)">
	<path id="Path_76" d="M10.1,0.9c0.2,0,0.4,0.1,0.5,0.2c1.1,0.4,1.6,1.7,1.2,2.8c-0.1,0.3-0.3,0.5-0.5,0.7c-0.4,0.4-0.7,0.7-1.1,1.1
		c-0.7,0.7-1.3,1.4-2,2C7.6,8.2,6.7,8.4,5.9,8.1c0,0-0.1,0-0.1-0.1c0.2-0.2,0.4-0.3,0.5-0.5c0.1-0.1,0.2-0.1,0.3-0.1
		c0.3,0,0.7-0.1,0.9-0.3C8.6,6,9.6,4.9,10.7,3.9c0.5-0.5,0.5-1.2,0-1.7C10.5,2,10.3,1.8,10,1.8c-0.4-0.1-0.8,0-1,0.3
		C8.4,2.7,7.9,3.2,7.3,3.8c-0.5,0.5-1,1-1.5,1.5C5.5,5.5,5.4,6,5.4,6.4c0,0,0,0.1,0,0.1C5.2,6.7,5,6.9,4.8,7.1
		C4.6,6.7,4.5,6.3,4.6,5.9c0.1-0.5,0.3-1,0.7-1.3c1-1,2-2,3-3C8.6,1.2,9,1,9.5,0.9c0,0,0,0,0,0L10.1,0.9z"/>
	<path id="Path_77" d="M8.3,6C8,6.2,7.8,6.4,7.6,6.6c0,0-0.1,0-0.1,0C7.1,6.6,6.7,6.7,6.5,7C5.4,8,4.3,9.1,3.3,10.2
		c-0.5,0.5-0.5,1.3,0,1.7c0.5,0.5,1.2,0.5,1.7,0c1.1-1.1,2.1-2.1,3.2-3.2c0.3-0.3,0.4-0.7,0.3-1c0,0,0-0.1,0-0.1
		C8.8,7.3,9,7.1,9.2,6.9c0.1,0.2,0.2,0.5,0.2,0.7c0.1,0.6-0.1,1.2-0.6,1.6c-1.1,1.1-2.2,2.2-3.2,3.2c-0.6,0.6-1.6,0.7-2.3,0.4
		c-0.8-0.4-1.3-1.2-1.2-2c0-0.5,0.2-1,0.6-1.3c1.1-1.1,2.1-2.1,3.2-3.2c0.6-0.6,1.5-0.8,2.3-0.5C8.2,5.9,8.2,5.9,8.3,6z"/>
</g>
</svg>
