<?xml version="1.0" encoding="utf-8"?>
<!-- Generator: Adobe Illustrator 26.0.1, SVG Export Plug-In . SVG Version: 6.00 Build 0)  -->
<svg version="1.1" id="Layer_1" xmlns="http://www.w3.org/2000/svg" xmlns:xlink="http://www.w3.org/1999/xlink" x="0px" y="0px"
	 viewBox="0 0 81 80.1" style="enable-background:new 0 0 81 80.1;" xml:space="preserve">
<style type="text/css">
	.st0{fill:url(#envieroment_icon_blu_00000016794525721778402240000010528096669765585068_);}
</style>
<linearGradient id="envieroment_icon_blu_00000013187968912825632140000006571620931124477341_" gradientUnits="userSpaceOnUse" x1="-906.168" y1="574.772" x2="-906.168" y2="573.772" gradientTransform="matrix(81.0098 0 0 -80.1221 73448.9609 46051.9258)">
	<stop  offset="0" style="stop-color:#7DA670"/>
	<stop  offset="1" style="stop-color:#B4E66E"/>
</linearGradient>
<path id="envieroment_icon_blu" style="fill:url(#envieroment_icon_blu_00000013187968912825632140000006571620931124477341_);" d="
	M12,78c-3.9-3.8-7.8-7.6-11.7-11.4c-0.1-0.1-0.2-0.1-0.3-0.2v-0.2c0.7-1,1.4-2.1,2.1-3.1c2.4-3.7,5.2-7.1,8.2-10.3
	c0.8-0.8,1.6-1.5,2.5-2.2c1.7-1.2,3.6-1.9,5.7-2c3.4-0.3,6.8-0.6,10.3-0.8c4.1-0.3,8.3-0.8,12.3-1.6c2.5-0.4,4.9-0.9,7.4-1.3
	c0.9-0.1,1.8-0.2,2.8-0.2c1.2,0,2.3,1,2.4,2.2c0.2,1.4-0.1,2.8-0.9,3.9c-1.3,2.1-3.3,3.6-5.7,4.3c-2.5,0.8-5,1.5-7.6,2.2
	c-0.5,0.2-1,0.4-1.6,0.5c0,0,0,0.1,0,0.1c0.9,0.1,1.7,0.3,2.6,0.4c2.7,0.4,5.4,0.5,8.1,0.4c3.4-0.1,6.8-1.1,9.8-2.8
	c2.7-1.5,5.4-3,8.1-4.4c1.7-1,3.6-1.6,5.5-1.9c1.4-0.2,2.8,0.1,4,0.8c0.4,0.2,0.8,0.6,1.1,1c0.8,1,0.7,2.4-0.2,3.2
	c-1.7,1.7-3.6,3.3-5.6,4.7c-4.2,3.2-8.7,6-13.5,8.2c-2.3,1.2-4.7,2-7.3,2.6c-1.2,0.2-2.3,0.3-3.5,0.4c-4,0.2-7.9,0.4-11.9,0.6
	c-2.4,0.1-4.9,0.1-7.3,0.1c-1.3,0-2.6,0.3-3.8,0.9c-2.2,1.2-4.4,2.7-6.3,4.4c-1.3,1.1-2.5,2.2-3.8,3.4C13.4,79.4,12.7,78.7,12,78z
	 M41.4,37.8c-4.2-2.1-7.8-5.2-10.6-8.9c-3.6-4.7-5.8-10.4-6.2-16.3c0-0.6,0.2-0.8,0.7-0.8c5.5,0.5,10.7,1.6,15.5,4.4
	c2.5,1.6,4.8,3.6,6.5,6.1c2.1,2.7,3.6,5.9,4.3,9.3c0.3,1.6,0.3,3.2,0.1,4.8c0,0.3-0.1,0.6-0.5,0.7s-0.6-0.2-0.8-0.4
	c-2.1-3.4-4.5-6.6-7.3-9.4c-1.7-1.8-3.6-3.5-5.7-5c-0.1-0.1-0.2-0.1-0.3-0.2c1.4,1.5,2.8,3,4.1,4.5c3,3.5,5.5,7.3,7.4,11.5
	c0.4,0.8,0.2,1.1-0.7,1.1c-0.3,0-0.6,0-0.9,0C45.2,39.3,43.2,38.7,41.4,37.8L41.4,37.8z M56.2,30.8c-0.7-0.1-0.9-0.4-0.6-1.1
	c2.2-4.7,5-9,8.5-12.9c1.2-1.3,2.4-2.6,3.6-4c-0.1,0.1-0.3,0.2-0.4,0.3C62.9,16.4,59,20.5,55.9,25c-0.7,1-1.4,2-2,3.1
	c-0.2,0.3-0.4,0.6-0.8,0.5s-0.5-0.4-0.5-0.7c-0.4-3.3,0.1-6.7,1.6-9.8c2-4.5,5.2-8.3,9.3-11.1c2.9-1.9,6.2-3.2,9.7-3.9
	c2.3-0.5,4.7-0.8,7-1.1c0.3,0,0.6,0.1,0.9,0.2v1.4c-0.1,0.9-0.3,1.7-0.4,2.6c-1.2,7-4.8,13.3-10,18c-2.4,2.3-5.2,4.2-8.2,5.5
	c-1.6,0.7-3.3,1.1-5,1.1C57,30.8,56.6,30.8,56.2,30.8L56.2,30.8z M44.8,17C38.6,13.3,35,8,34.3,0.7c0-0.2,0-0.5,0.1-0.7h1
	c1.1,0.2,2.2,0.3,3.3,0.5C41.3,1,43.8,2,46,3.6c3.4,2.4,5.6,6,6.3,10.1c0.1,0.9,0.1,1.7,0,2.6c0,0.3,0,0.6-0.4,0.6
	c-0.2-0.1-0.4-0.2-0.6-0.4c-1.6-2.6-3.6-5-5.8-7.2c-0.8-0.7-1.7-1.4-2.5-2.1c-0.1-0.1-0.1-0.1-0.2-0.1c0.8,0.8,1.5,1.7,2.3,2.5
	c2.1,2.3,3.8,5,5.1,7.8c0.3,0.7,0.2,0.8-0.5,0.9c-0.1,0-0.3,0-0.4,0C47.7,18.3,46.2,17.8,44.8,17L44.8,17z"/>
</svg>
