<?xml version="1.0" encoding="utf-8"?>
<!-- Generator: Adobe Illustrator 26.0.3, SVG Export Plug-In . SVG Version: 6.00 Build 0)  -->
<svg version="1.1" id="Layer_1" xmlns="http://www.w3.org/2000/svg" xmlns:xlink="http://www.w3.org/1999/xlink" x="0px" y="0px"
	 viewBox="0 0 100 100" style="enable-background:new 0 0 100 100;" xml:space="preserve">
<style type="text/css">
	.st0{fill:#1F7244;}
	.st1{fill:#FEFFFE;}
</style>
<g>
	<path class="st0" d="M100,12.7c0,24.4,0,48.8,0,73.2c-0.2,0-0.2,0.1-0.2,0.2c-0.1,0.3-0.1,0.6-0.2,1c-0.2,0.8-0.6,1.3-1.3,1.7
		c-0.4,0.2-0.8,0.4-1.2,0.4c-1,0.2-2.1,0.3-3.1,0.3c-10.9,0-21.8,0-32.7,0c-0.5,0-1.1,0-1.6,0c-0.7,0-0.6,0-0.6,0.7
		c0,0.1,0,0.3,0,0.4c0,2.9,0,5.8,0,8.7c0,0.1,0,0.3,0,0.4c0,0.2-0.1,0.3-0.3,0.3c-0.1,0-0.3,0-0.4,0c-1.9,0-3.8,0-5.8,0
		c-0.4,0-0.7,0-1.1-0.1c-1.3-0.2-2.7-0.5-4-0.7c-3.2-0.6-6.4-1.2-9.5-1.7c-3-0.5-6-1.1-9-1.6c-3.1-0.6-6.2-1.1-9.3-1.6
		c-2.8-0.5-5.6-1-8.5-1.5c-3.1-0.5-6.1-1.1-9.2-1.6C1.4,91,0.7,90.8,0,90.7C0,63.6,0,36.4,0,9.3c0.1,0,0.2,0,0.3,0
		C2.6,8.9,4.8,8.4,7.1,8c2.8-0.5,5.6-1,8.5-1.5c2.9-0.5,5.8-1,8.7-1.5c2.7-0.5,5.3-0.9,8-1.4c2.7-0.5,5.4-1,8-1.4
		c2.5-0.4,4.9-0.9,7.4-1.3c1.2-0.2,2.5-0.4,3.7-0.7c0.1,0,0.3,0,0.3-0.2c2.5,0,5,0,7.5,0c0,2.9,0,5.7,0,8.6c0,0.8-0.1,0.7,0.7,0.7
		c10.9,0,21.8,0,32.8,0c1.2,0,2.3,0,3.4,0.1c0.9,0.1,1.7,0.3,2.5,0.7c0.3,0.2,0.5,0.3,0.6,0.6c0.3,0.5,0.5,1.1,0.6,1.6
		C99.9,12.5,99.8,12.7,100,12.7z M96.7,49.4c0-12,0-24,0-36c0-0.7,0.1-0.7-0.6-0.7c-12.1,0-24.2,0-36.3,0c-0.1,0-0.2,0-0.3,0
		c-0.2,0-0.3,0.1-0.3,0.3c0,0.7,0,1.3,0,2c0,1.4,0,2.8,0,4.2c0,0.6,0,0.5,0.5,0.5c0.1,0,0.2,0,0.3,0c2.6,0,5.1,0,7.7,0
		c0.1,0,0.2,0,0.3,0c0.2,0,0.3,0.1,0.3,0.3c0,0.1,0,0.2,0,0.2c0,2.4,0,4.7,0,7.1c0,0.1,0,0.2,0,0.3c0,0.2-0.1,0.2-0.2,0.2
		c-0.1,0-0.2,0-0.3,0c-2.2,0-4.5,0-6.7,0c-0.5,0-1,0-1.5,0c-0.2,0-0.3,0.1-0.3,0.3c0,1.4,0,2.7,0,4.1c0,0.2,0.1,0.3,0.3,0.3
		c0.1,0,0.2,0,0.3,0c2.6,0,5.2,0,7.9,0c0.1,0,0.2,0,0.3,0c0.2,0,0.3,0.1,0.3,0.3c0,0.1,0,0.2,0,0.2c0,2.4,0,4.7,0,7.1
		c0,0.1,0,0.2,0,0.3c0,0.2-0.1,0.2-0.2,0.2c-0.1,0-0.2,0-0.3,0c-2.1,0-4.3,0-6.4,0c-0.6,0-1.2,0-1.8,0c-0.2,0-0.3,0.1-0.3,0.3
		c0,1.4,0,2.7,0,4.1c0,0.2,0.1,0.3,0.3,0.3c0.1,0,0.3,0,0.4,0c2.6,0,5.2,0,7.9,0c0.1,0,0.2,0,0.3,0c0.2,0,0.3,0.1,0.3,0.3
		c0,0.1,0,0.2,0,0.2c0,2.4,0,4.7,0,7.1c0,0.5,0.1,0.5-0.5,0.5c-2.7,0-5.3,0-8,0c-0.1,0-0.3,0-0.4,0c-0.2,0-0.2,0.1-0.2,0.2
		c0,0.2,0,0.4,0,0.6c0,1.2,0,2.3,0,3.5c0,0.3,0,0.3,0.3,0.4c0.1,0,0.2,0,0.3,0c2.6,0,5.2,0,7.9,0c0.1,0,0.2,0,0.3,0
		c0.2,0,0.3,0.1,0.3,0.3c0,0.1,0,0.2,0,0.3c0,2.3,0,4.6,0,6.9c0,0.7,0.1,0.6-0.6,0.6c-2.7,0-5.3,0-8,0c-0.6,0-0.5-0.1-0.5,0.6
		c0,1.2,0,2.4,0,3.5c0,0.6-0.1,0.5,0.5,0.5c2.7,0,5.4,0,8.2,0c0.4,0,0.4,0,0.4,0.4c0,2.5,0,4.9,0,7.4c0,0.4,0,0.4-0.4,0.4
		c-0.1,0-0.2,0-0.3,0c-2.6,0-5.2,0-7.9,0c-0.1,0-0.3,0-0.4,0c-0.1,0-0.2,0.1-0.2,0.2c0,0.1,0,0.2,0,0.3c0,1.9,0,3.9,0,5.8
		c0,0.6,0,0.6,0.6,0.6c12.1,0,24.2,0,36.3,0c0.7,0,0.6,0.1,0.6-0.6C96.7,73.4,96.7,61.4,96.7,49.4z M28,44.9
		c-0.3-0.8-0.5-1.6-0.8-2.3c-1.2-3.7-2.7-7.2-4-10.9c-0.1-0.3-0.2-0.3-0.5-0.3c-2,0.1-4,0.2-6,0.4c-0.4,0-0.7,0.1-1.1,0.1
		c0,0.2,0.1,0.3,0.1,0.5c0.3,0.7,0.6,1.3,0.9,2c2.2,5,4.5,9.9,6.7,14.9c0.2,0.4,0.1,0.6,0,1c-2.9,5.5-5.5,11.1-8.3,16.7
		C15,66.9,14.9,67,15,67.2c2.4,0.1,4.7,0.2,7.1,0.2c0.3,0,0.3-0.2,0.4-0.4c0.5-1.4,1.1-2.8,1.7-4.2c1.2-2.9,2.5-5.9,3.5-8.9
		c0-0.1,0-0.2,0.1-0.2c0.1,0.1,0.1,0.2,0.1,0.3c0.3,1,0.6,2.1,1,3.1c1,2.8,2.2,5.4,3.3,8.1c0.3,0.8,0.7,1.6,1,2.5
		c0.1,0.3,0.3,0.4,0.6,0.4c0.1,0,0.2,0,0.2,0c1.4,0.1,2.7,0.2,4.1,0.3c1.1,0.1,2.3,0.1,3.4,0.2c0-0.2-0.1-0.4-0.2-0.6
		c-3-6.2-6-12.3-9-18.5c-0.2-0.3-0.2-0.6,0-0.9c2.9-6,5.8-12,8.7-18c0.1-0.2,0.2-0.3,0.2-0.5c-0.2-0.1-0.3,0-0.4,0
		c-1.2,0.1-2.4,0.1-3.6,0.2c-1.1,0.1-2.1,0.2-3.2,0.2c-0.3,0-0.4,0.1-0.6,0.4c-0.6,1.4-1.2,2.9-1.8,4.3c-1.3,3.1-2.6,6.1-3.6,9.3
		C28.1,44.7,28.1,44.8,28,44.9z"/>
	<path class="st1" d="M96.7,49.4c0,12,0,24,0,36c0,0.7,0.1,0.6-0.6,0.6c-12.1,0-24.2,0-36.3,0c-0.6,0-0.6,0-0.6-0.6
		c0-1.9,0-3.9,0-5.8c0-0.1,0-0.2,0-0.3c0-0.1,0.1-0.2,0.2-0.2c0.1,0,0.3,0,0.4,0c2.6,0,5.2,0,7.9,0c0.1,0,0.2,0,0.3,0
		c0.4,0,0.4,0,0.4-0.4c0-2.5,0-4.9,0-7.4c0-0.4,0-0.4-0.4-0.4c-2.7,0-5.4,0-8.2,0c-0.6,0-0.5,0.1-0.5-0.5c0-1.2,0-2.4,0-3.5
		c0-0.6-0.1-0.6,0.5-0.6c2.7,0,5.3,0,8,0c0.7,0,0.6,0.1,0.6-0.6c0-2.3,0-4.6,0-6.9c0-0.1,0-0.2,0-0.3c0-0.2-0.1-0.3-0.3-0.3
		c-0.1,0-0.2,0-0.3,0c-2.6,0-5.2,0-7.9,0c-0.1,0-0.2,0-0.3,0c-0.3,0-0.3,0-0.3-0.4c0-1.2,0-2.3,0-3.5c0-0.2,0-0.4,0-0.6
		c0-0.2,0.1-0.2,0.2-0.2c0.1,0,0.3,0,0.4,0c2.7,0,5.3,0,8,0c0.6,0,0.5,0,0.5-0.5c0-2.4,0-4.7,0-7.1c0-0.1,0-0.2,0-0.2
		c0-0.2-0.1-0.3-0.3-0.3c-0.1,0-0.2,0-0.3,0c-2.6,0-5.2,0-7.9,0c-0.1,0-0.3,0-0.4,0c-0.2,0-0.3-0.1-0.3-0.3c0-1.4,0-2.7,0-4.1
		c0-0.2,0.1-0.3,0.3-0.3c0.6,0,1.2,0,1.8,0c2.1,0,4.3,0,6.4,0c0.1,0,0.2,0,0.3,0c0.2,0,0.2-0.1,0.2-0.2c0-0.1,0-0.2,0-0.3
		c0-2.4,0-4.7,0-7.1c0-0.1,0-0.2,0-0.2c0-0.2-0.1-0.3-0.3-0.3c-0.1,0-0.2,0-0.3,0c-2.6,0-5.2,0-7.9,0c-0.1,0-0.2,0-0.3,0
		c-0.2,0-0.3,0-0.3-0.3c0-1.4,0-2.7,0-4.1c0-0.2,0.1-0.3,0.3-0.3c0.5,0,1,0,1.5,0c2.2,0,4.5,0,6.7,0c0.1,0,0.2,0,0.3,0
		c0.2,0,0.2-0.1,0.2-0.2c0-0.1,0-0.2,0-0.3c0-2.4,0-4.7,0-7.1c0-0.1,0-0.2,0-0.2c0-0.2-0.1-0.3-0.3-0.3c-0.1,0-0.2,0-0.3,0
		c-2.6,0-5.1,0-7.7,0c-0.1,0-0.2,0-0.3,0c-0.5,0-0.5,0.1-0.5-0.5c0-1.4,0-2.8,0-4.2c0-0.7,0-1.3,0-2c0-0.2,0.1-0.3,0.3-0.3
		c0.1,0,0.2,0,0.3,0c12.1,0,24.2,0,36.3,0c0.7,0,0.6-0.1,0.6,0.7C96.7,25.4,96.7,37.4,96.7,49.4z M80.7,53.5c2.4,0,4.9,0,7.3,0
		c0.1,0,0.3,0,0.4,0c0.3,0,0.3-0.1,0.3-0.3c0-2.5,0-5,0-7.5c0-0.3,0-0.3-0.4-0.3c-0.1,0-0.2,0-0.2,0c-4.9,0-9.8,0-14.7,0
		c-0.1,0-0.2,0-0.3,0c-0.3,0-0.3,0.1-0.3,0.3c0,2.5,0,5,0,7.5c0,0.2,0,0.4,0.3,0.3c0.1,0,0.2,0,0.3,0C75.9,53.5,78.3,53.5,80.7,53.5
		z M80.8,27.9c2.5,0,5,0,7.5,0c0.4,0,0.4,0,0.4-0.4c0-0.1,0-0.1,0-0.2c0-2.3,0-4.6,0-6.9c0-0.7,0.1-0.6-0.6-0.6c-4.9,0-9.9,0-14.8,0
		c-0.1,0-0.2,0-0.3,0c-0.2,0-0.3,0.1-0.2,0.3c0,0.1,0,0.2,0,0.2c0,2.4,0,4.7,0,7.1c0,0.1,0,0.2,0,0.2c0,0.2,0.1,0.3,0.3,0.3
		c0.1,0,0.2,0,0.3,0C75.9,27.9,78.3,27.9,80.8,27.9z M80.8,40.7c1.6,0,3.3,0,4.9,0c0.8,0,1.7,0,2.5,0c0.5,0,0.5,0,0.5-0.5
		c0-2.4,0-4.7,0-7.1c0-0.6,0-0.5-0.5-0.5c-4.5,0-9,0-13.4,0c-0.5,0-1,0-1.5,0c-0.5,0-0.5,0-0.5,0.5c0,2.4,0,4.7,0,7.1
		c0,0,0,0.1,0,0.1c0,0.4,0,0.4,0.4,0.4c0.1,0,0.2,0,0.3,0C75.9,40.7,78.3,40.7,80.8,40.7z M80.8,58.2c-2.5,0-5.1,0-7.6,0
		c-0.4,0-0.4,0-0.4,0.4c0,2.4,0,4.8,0,7.3c0,0.5,0,0.5,0.4,0.5c5,0,10,0,15.1,0c0.4,0,0.4,0,0.4-0.4c0-2.4,0-4.9,0-7.3
		c0,0,0-0.1,0-0.1c0-0.2-0.1-0.3-0.3-0.3c-0.1,0-0.2,0-0.3,0C85.7,58.2,83.2,58.2,80.8,58.2z M80.7,79.1c2.5,0,5,0,7.4,0
		c0.1,0,0.3,0,0.4,0c0.1,0,0.2-0.1,0.2-0.2c0-0.1,0-0.2,0-0.3c0-2.4,0-4.7,0-7.1c0-0.6,0.1-0.6-0.5-0.6c-5,0-9.9,0-14.9,0
		c-0.1,0-0.2,0-0.3,0c-0.1,0-0.2,0.1-0.2,0.2c0,0.1,0,0.2,0,0.3c0,2.4,0,4.7,0,7.1c0,0.1,0,0.2,0,0.2c0,0.2,0.1,0.3,0.2,0.3
		c0.1,0,0.2,0,0.3,0C75.8,79.1,78.3,79.1,80.7,79.1z"/>
	<path class="st1" d="M28,44.9c0.1,0,0.1-0.1,0.2-0.2c1-3.2,2.3-6.2,3.6-9.3c0.6-1.4,1.2-2.9,1.8-4.3c0.1-0.3,0.3-0.4,0.6-0.4
		c1.1-0.1,2.1-0.2,3.2-0.2c1.2-0.1,2.4-0.1,3.6-0.2c0.1,0,0.3,0,0.4,0c0,0.2-0.1,0.4-0.2,0.5c-2.9,6-5.8,12-8.7,18
		c-0.2,0.3-0.2,0.6,0,0.9c3,6.2,6,12.3,9,18.5c0.1,0.2,0.2,0.3,0.2,0.6c-1.1-0.1-2.3-0.1-3.4-0.2c-1.4-0.1-2.7-0.2-4.1-0.3
		c-0.1,0-0.2,0-0.2,0c-0.3,0-0.5-0.1-0.6-0.4c-0.3-0.8-0.7-1.7-1-2.5C31.2,62.6,30,60,29,57.2c-0.4-1-0.7-2.1-1-3.1
		c0-0.1,0-0.2-0.1-0.3c-0.1,0-0.1,0.1-0.1,0.2c-1,3-2.3,6-3.5,8.9c-0.6,1.4-1.2,2.8-1.7,4.2c-0.1,0.2-0.1,0.4-0.4,0.4
		c-2.4,0-4.7-0.1-7.1-0.2c-0.1-0.2,0-0.3,0.1-0.4c2.8-5.6,5.5-11.2,8.3-16.7c0.2-0.3,0.2-0.6,0-1c-2.2-5-4.5-9.9-6.7-14.9
		c-0.3-0.7-0.6-1.3-0.9-2c-0.1-0.1-0.1-0.3-0.1-0.5c0.4,0,0.7-0.1,1.1-0.1c2-0.1,4-0.2,6-0.4c0.3,0,0.4,0,0.5,0.3
		c1.3,3.6,2.8,7.2,4,10.9C27.5,43.3,27.8,44.1,28,44.9z"/>
	<path class="st0" d="M80.7,53.5c-2.4,0-4.9,0-7.3,0c-0.1,0-0.2,0-0.3,0c-0.3,0-0.3-0.1-0.3-0.3c0-2.5,0-5,0-7.5
		c0-0.3,0.1-0.4,0.3-0.3c0.1,0,0.2,0,0.3,0c4.9,0,9.8,0,14.7,0c0.1,0,0.2,0,0.2,0c0.3,0,0.4,0,0.4,0.3c0,2.5,0,5,0,7.5
		c0,0.3-0.1,0.4-0.3,0.3c-0.1,0-0.3,0-0.4,0C85.6,53.5,83.2,53.5,80.7,53.5z"/>
	<path class="st0" d="M80.8,27.9c-2.4,0-4.9,0-7.3,0c-0.1,0-0.2,0-0.3,0c-0.2,0-0.3-0.1-0.3-0.3c0-0.1,0-0.2,0-0.2
		c0-2.4,0-4.7,0-7.1c0-0.1,0-0.2,0-0.2c0-0.2,0.1-0.3,0.2-0.3c0.1,0,0.2,0,0.3,0c4.9,0,9.9,0,14.8,0c0.7,0,0.6-0.1,0.6,0.6
		c0,2.3,0,4.6,0,6.9c0,0.1,0,0.1,0,0.2c0,0.4,0,0.4-0.4,0.4C85.8,27.9,83.3,27.9,80.8,27.9z"/>
	<path class="st0" d="M80.8,40.7c-2.4,0-4.9,0-7.3,0c-0.1,0-0.2,0-0.3,0c-0.4,0-0.4,0-0.4-0.4c0,0,0-0.1,0-0.1c0-2.4,0-4.7,0-7.1
		c0-0.5,0-0.5,0.5-0.5c0.5,0,1,0,1.5,0c4.5,0,9,0,13.4,0c0.6,0,0.5-0.1,0.5,0.5c0,2.4,0,4.7,0,7.1c0,0.5,0.1,0.5-0.5,0.5
		c-0.8,0-1.7,0-2.5,0C84.1,40.7,82.4,40.7,80.8,40.7z"/>
	<path class="st0" d="M80.8,58.2c2.4,0,4.9,0,7.3,0c0.1,0,0.2,0,0.3,0c0.2,0,0.3,0.1,0.3,0.3c0,0,0,0.1,0,0.1c0,2.4,0,4.9,0,7.3
		c0,0.4,0,0.4-0.4,0.4c-5,0-10,0-15.1,0c-0.4,0-0.4,0-0.4-0.5c0-2.4,0-4.8,0-7.3c0-0.4,0-0.4,0.4-0.4C75.7,58.1,78.3,58.2,80.8,58.2
		z"/>
	<path class="st0" d="M80.7,79.1c-2.4,0-4.9,0-7.3,0c-0.1,0-0.2,0-0.3,0c-0.2,0-0.3-0.1-0.2-0.3c0-0.1,0-0.2,0-0.2
		c0-2.4,0-4.7,0-7.1c0-0.1,0-0.2,0-0.3c0-0.1,0.1-0.2,0.2-0.2c0.1,0,0.2,0,0.3,0c5,0,9.9,0,14.9,0c0.6,0,0.5-0.1,0.5,0.6
		c0,2.4,0,4.7,0,7.1c0,0.1,0,0.2,0,0.3c0,0.1-0.1,0.2-0.2,0.2c-0.1,0-0.3,0-0.4,0C85.7,79.1,83.2,79.1,80.7,79.1z"/>
</g>
</svg>
