<?xml version="1.0" encoding="utf-8"?>
<!-- Generator: Adobe Illustrator 26.0.2, SVG Export Plug-In . SVG Version: 6.00 Build 0)  -->
<svg version="1.1" id="Layer_1" xmlns="http://www.w3.org/2000/svg" xmlns:xlink="http://www.w3.org/1999/xlink" x="0px" y="0px"
	 viewBox="0 0 30 30" style="enable-background:new 0 0 30 30;" xml:space="preserve">
<style type="text/css">
	.st0{fill:none;}
	.st1{fill:url(#SVGID_1_);}
	.st2{fill:#FFFFFF;}
</style>
<path class="st0" d="M6,6h18v18H6V6z"/>
<g>
	
		<linearGradient id="SVGID_1_" gradientUnits="userSpaceOnUse" x1="15" y1="2" x2="15" y2="32" gradientTransform="matrix(1 0 0 -1 0 32)">
		<stop  offset="0" style="stop-color:#B1E26E"/>
		<stop  offset="1" style="stop-color:#7EA770"/>
	</linearGradient>
	<path class="st1" d="M15,30L15,30C6.7,30,0,23.3,0,15l0,0C0,6.7,6.7,0,15,0l0,0c8.3,0,15,6.7,15,15l0,0C30,23.3,23.3,30,15,30z"/>
	<path class="st2" d="M22.5,6.6H7.6c-0.6,0-1,0.4-1,0.9v14.9c0,0.5,0.4,0.9,0.9,0.9h8v-6.5h-2.2v-2.5h2.2v-1.9
		c0-2.2,1.3-3.4,3.2-3.4c0.7,0,1.3,0,1.9,0.1v2.3h-1.3c-1.1,0-1.3,0.5-1.3,1.2v1.6h2.5l-0.3,2.5H18v6.5h4.3c0.5,0,0.9-0.4,0.9-0.9
		v-15C23.4,7,23,6.6,22.5,6.6z"/>
</g>
</svg>
