<?xml version="1.0" encoding="utf-8"?>
<!-- Generator: Adobe Illustrator 26.0.1, SVG Export Plug-In . SVG Version: 6.00 Build 0)  -->
<svg version="1.1" id="Layer_1" xmlns="http://www.w3.org/2000/svg" xmlns:xlink="http://www.w3.org/1999/xlink" x="0px" y="0px"
	 viewBox="0 0 203.7 53.2" style="enable-background:new 0 0 203.7 53.2;" xml:space="preserve">
<style type="text/css">
	.st0{fill:#21456B;}
</style>
<g id="Group_124" transform="translate(-782.799 -538.084)">
	<path id="money_icon_bl" class="st0" d="M798.3,590.8c-2.8-0.2-5.6-0.8-8.2-1.8c-3.8-1.3-6.5-4.7-7-8.7c-0.8-4.9,0.3-9.8,3.1-13.9
		c2.9-4.6,7.3-8.1,12.4-10.1c0.2-0.1,0.4-0.1,0.5,0c1.4,1,3.1,1.6,4.8,1.6c2.3,0.2,4.6,0.1,6.8-0.5c1.1-0.3,2-0.8,2.9-1.5
		c0.2-0.3,0.6-0.4,1-0.2c7,2.1,12.8,7.1,16,13.7c2,3.9,2.3,8.5,1,12.7c-0.9,3.1-3.3,5.6-6.3,6.8c-2.5,1-5.1,1.7-7.7,1.9
		c-3.3,0.3-6.7,0.5-9.6,0.7C804.3,591.1,801.3,591.1,798.3,590.8z M801.3,577.1c-0.2,0.7-0.4,1.4-0.6,2.1c-0.1,0.3,0,0.5,0.3,0.6
		c1.1,0.5,2.3,0.8,3.5,1c0.3,0,0.4,0.1,0.4,0.4c0,0.5,0,1,0,1.6c0,0.4,0.2,0.6,0.6,0.5c0.3,0,0.6,0,0.9,0c0.2,0,0.5,0,0.7,0
		c0.6,0,0.7-0.1,0.7-0.7c0-0.7,0-1.3,0-2c0.3-0.1,0.6-0.2,0.9-0.3c1.5-0.6,2.7-1.6,3-3.3c0.4-1.8-0.3-3.7-1.9-4.7
		c-0.7-0.4-1.5-0.8-2.3-1.2c-0.8-0.4-1.6-0.6-2.3-1.1c-0.6-0.3-0.7-1-0.4-1.6c0.1-0.2,0.3-0.3,0.5-0.4c0.4-0.2,0.8-0.3,1.2-0.4
		c1.1-0.1,2.3,0.1,3.3,0.7c0.3,0.1,0.5,0.2,0.6-0.2c0.2-0.7,0.4-1.4,0.6-2.1c0.1-0.2,0-0.4-0.2-0.5c0,0-0.1,0-0.1,0
		c-1-0.3-2-0.6-3.1-0.9c0-0.5,0-1.1,0-1.7c0-0.3-0.1-0.5-0.4-0.6c-0.1,0-0.1,0-0.2,0c-0.6,0-1.1,0-1.7,0c-0.4,0-0.6,0.2-0.6,0.6
		c0,0.4,0,0.9,0,1.3c0,0.4,0,0.6-0.5,0.7c-0.3,0.1-0.7,0.2-1,0.4c-2.1,1-3.1,3.5-2.1,5.6c0.3,0.7,0.8,1.2,1.4,1.7
		c0.9,0.6,1.9,1,2.9,1.5c0.6,0.3,1.2,0.6,1.7,0.9c0.5,0.4,0.8,1,0.6,1.7c-0.1,0.6-0.6,1.1-1.2,1.2c-0.5,0.1-1.1,0.1-1.6,0.1
		c-1-0.1-2.1-0.4-3-0.9c-0.1-0.1-0.2-0.1-0.3-0.1C801.5,576.8,801.4,576.9,801.3,577.1L801.3,577.1z M800.4,554.3
		c-0.9-0.3-1.6-1-1.8-1.8c-0.9-2.3-1.8-4.6-2.7-6.9c-0.3-0.5-0.5-1.1-0.7-1.6c-0.3-1.2,0.2-1.9,1.5-1.8c0.9,0.1,1.9,0.2,2.8,0.2
		c0.5,0,1,0,1.5-0.1c0.9-0.1,1.6-0.7,1.8-1.6c0.3-1.1,1-2,2-2.5h1.7c1,0.5,1.7,1.4,2,2.5c0.5,1.4,1,1.6,2.3,0.8
		c0.6-0.5,1.3-0.9,2.1-1.2c0.4-0.1,0.9-0.1,1.3-0.1c0.7,0,1.2,0.6,1.2,1.2c0,0,0,0,0,0c0,0.5-0.1,1-0.3,1.5c-1.3,2.5-2.2,5.2-2.5,8
		c-0.1,0.4-0.1,0.8,0,1.2c0.1,0.7-0.3,1.4-0.9,1.7c-0.7,0.4-1.5,0.7-2.3,0.9c-1.1,0.3-2.3,0.5-3.5,0.5
		C804.1,555.1,802.2,554.8,800.4,554.3L800.4,554.3z"/>
	<path id="time_icon_bl" class="st0" d="M879.8,591.3c-0.3-0.1-0.6-0.1-0.8-0.2c-4.3-0.9-8.3-2.8-11.6-5.6c-5.5-4.4-9-10.9-9.7-17.9
		c-0.1-0.6-0.1-1.2-0.2-1.8v-2.1c0.1-0.6,0.1-1.1,0.2-1.7c0.4-3.5,1.4-6.9,3.1-10c2.7-5,6.9-8.9,12-11.3c8.5-4.1,18.5-3.4,26.3,1.7
		c0.1,0.1,0.2,0.1,0.2,0.1c0,0,0,0,0.1,0c0.1-0.1,0.1-0.2,0.2-0.2c0.5-0.7,1-1.4,1.5-2.1c0.1-0.1,0.2-0.2,0.3-0.4
		c0.2-0.2,0.5-0.2,0.7-0.1c0.1,0.1,0.1,0.1,0.2,0.2c0.1,0.1,0.1,0.3,0.2,0.4c0.6,2.3,1.3,4.5,1.9,6.8c0.3,0.6,0,1.3-0.6,1.6
		c-0.2,0.1-0.4,0.1-0.6,0.1c-2.3,0.2-4.7,0.4-7,0.6c-0.2,0-0.4,0-0.7,0c-0.3,0-0.4-0.3-0.4-0.5c0-0.1,0-0.1,0-0.2
		c0.1-0.2,0.1-0.3,0.3-0.5c0.5-0.7,1-1.4,1.5-2.1c0.1-0.1,0.1-0.2,0.2-0.3c-0.5-0.3-1-0.6-1.5-0.9c-2.5-1.4-5.2-2.3-8.1-2.7
		c-12.3-1.7-23.6,6.8-25.3,19.1c-1.3,8.9,3,17.7,10.7,22.4c2.3,1.4,4.9,2.4,7.6,2.9c1.2,0.2,2,1.2,1.9,2.4c-0.1,0.9-0.8,1.7-1.7,1.8
		c-0.1,0-0.1,0-0.2,0.1L879.8,591.3z M886.7,589.3c-0.1-1.1,0.6-2,1.7-2.3c0.5-0.1,1-0.2,1.5-0.3c1.1-0.2,2.2,0.5,2.5,1.6
		c0.3,1.1-0.4,2.3-1.5,2.6c-0.6,0.2-1.2,0.3-1.8,0.4c-0.1,0-0.2,0-0.2,0C887.8,591.3,886.8,590.4,886.7,589.3L886.7,589.3z
		 M894.9,587.3c-0.6-1-0.3-2.3,0.7-2.9c0.5-0.3,0.9-0.6,1.4-0.8c0.3-0.2,0.7-0.3,1.1-0.4c0,0,0,0,0,0.1c0.9,0,1.7,0.6,2,1.5
		c0.3,0.9,0,1.9-0.8,2.4c-0.5,0.4-1,0.7-1.6,1c-0.3,0.2-0.6,0.2-1,0.2C896,588.4,895.3,588,894.9,587.3L894.9,587.3z M902.4,582.9
		c-0.8-0.3-1.3-1.1-1.3-2c0-0.5,0.1-0.9,0.4-1.3c0.3-0.4,0.7-0.8,1-1.3c0.7-0.9,2-1,2.9-0.3c0.9,0.7,1.2,1.9,0.6,2.9
		c-0.4,0.6-0.8,1.1-1.3,1.6c-0.4,0.4-0.9,0.6-1.5,0.6C902.9,583,902.6,583,902.4,582.9L902.4,582.9z M906.8,575.7
		c-1.1-0.4-1.7-1.6-1.3-2.7c0.2-0.5,0.3-1,0.5-1.5c0.4-1,1.4-1.5,2.4-1.4c1,0.2,1.8,1.1,1.8,2.1c0,0.2-0.1,0.4-0.1,0.7
		c-0.2,0.5-0.3,1-0.5,1.5c-0.3,0.8-1.1,1.4-2,1.4C907.2,575.8,907,575.8,906.8,575.7L906.8,575.7z M897.2,574.8
		c-1.1-0.6-2.2-1.1-3.3-1.7c-4.1-2.1-8.2-4.2-12.3-6.3c-0.2-0.1-0.3-0.2-0.3-0.4c0-2.8,0-5.7,0-8.5c0-2.8,0-5.7,0-8.5
		c0-1,0.8-1.8,1.7-1.8c0.9,0,1.6,0.6,1.8,1.5c0,0.2,0,0.4,0,0.5c0,4.9,0,9.7,0,14.6c0,0.2,0.1,0.4,0.3,0.5c4.5,2.3,9.1,4.7,13.6,7
		c0.9,0.4,1.3,1.3,1,2.2c-0.2,0.7-0.9,1.1-1.6,1.1C897.8,575,897.5,574.9,897.2,574.8L897.2,574.8z M908.9,567.6
		c-1.1-0.1-1.9-1-1.9-2.1c0-0.5,0-1,0-1.5c0-1.2,1-2.2,2.1-2.2c1.1,0,2,0.8,2.1,1.8c0,0.1,0,0.1,0,0.2v2c0,0.1,0,0.1-0.1,0.1
		c-0.2,1-1.1,1.7-2.1,1.7C909,567.6,909,567.6,908.9,567.6L908.9,567.6z M905.9,558c-0.2-0.5-0.4-1-0.6-1.6
		c-0.3-1.1,0.3-2.4,1.4-2.7c0.2-0.1,0.5-0.1,0.8-0.1c0.8,0,1.5,0.5,1.8,1.3c0.2,0.6,0.5,1.1,0.6,1.7c0.3,1.1-0.3,2.3-1.4,2.6
		C907.5,559.6,906.3,559.1,905.9,558L905.9,558z"/>
	<path id="envieroment_icon_blu" class="st0" d="M940.6,589.9c-2.6-2.5-5.2-5-7.8-7.5c-0.1-0.1-0.1-0.1-0.2-0.1v-0.1
		c0.5-0.7,0.9-1.4,1.4-2.1c1.6-2.4,3.4-4.7,5.5-6.8c0.5-0.5,1.1-1,1.7-1.5c1.1-0.8,2.4-1.3,3.8-1.3c2.3-0.2,4.5-0.4,6.8-0.5
		c2.8-0.2,5.5-0.6,8.2-1.1c1.6-0.3,3.3-0.6,4.9-0.8c0.6-0.1,1.2-0.1,1.8-0.1c0.8,0,1.5,0.6,1.6,1.5c0.2,0.9-0.1,1.8-0.6,2.6
		c-0.9,1.4-2.2,2.4-3.8,2.8c-1.7,0.5-3.3,1-5,1.5c-0.4,0.1-0.7,0.2-1,0.4c0,0,0,0.1,0,0.1c0.6,0.1,1.1,0.2,1.7,0.3
		c1.8,0.3,3.6,0.4,5.4,0.3c2.3-0.1,4.5-0.7,6.5-1.8c1.8-1,3.6-2,5.4-2.9c1.1-0.6,2.4-1.1,3.7-1.3c0.9-0.1,1.9,0,2.6,0.5
		c0.3,0.2,0.5,0.4,0.7,0.6c0.5,0.6,0.5,1.6-0.1,2.2c-1.2,1.1-2.4,2.2-3.7,3.2c-2.8,2.1-5.8,3.9-9,5.4c-1.5,0.8-3.2,1.4-4.8,1.7
		c-0.8,0.1-1.5,0.2-2.3,0.2c-2.6,0.1-5.3,0.3-7.9,0.4c-1.6,0.1-3.2,0.1-4.9,0c-0.9,0-1.7,0.2-2.5,0.6c-1.5,0.8-2.9,1.8-4.2,2.9
		c-0.9,0.7-1.7,1.5-2.5,2.2C941.6,590.9,941.1,590.4,940.6,589.9z M960.2,563.2c-2.8-1.4-5.2-3.4-7-5.9c-2.4-3.1-3.8-6.9-4.1-10.8
		c0-0.4,0.1-0.5,0.5-0.5c3.6,0.2,7.1,1.2,10.3,2.9c1.7,1,3.2,2.4,4.3,4c1.4,1.8,2.4,3.9,2.8,6.2c0.2,1.1,0.2,2.1,0.1,3.2
		c0,0.2-0.1,0.4-0.3,0.5c-0.3,0.1-0.4-0.1-0.5-0.3c-1.4-2.3-3-4.4-4.8-6.3c-1.2-1.2-2.4-2.3-3.8-3.3c-0.1,0-0.1-0.1-0.2-0.1
		c0.9,1,1.8,2,2.7,3c2,2.3,3.6,4.9,4.9,7.6c0.2,0.5,0.1,0.7-0.5,0.8c-0.2,0-0.4,0-0.6,0C962.7,564.2,961.4,563.8,960.2,563.2z
		 M970,558.5c-0.5-0.1-0.6-0.3-0.4-0.7c1.4-3.1,3.3-6,5.6-8.6c0.8-0.9,1.6-1.7,2.4-2.6c-0.1,0.1-0.2,0.1-0.3,0.2
		c-2.9,2.2-5.5,4.9-7.6,7.9c-0.5,0.7-0.9,1.4-1.4,2c-0.1,0.2-0.2,0.4-0.5,0.3s-0.3-0.3-0.3-0.5c-0.3-2.2,0.1-4.5,1.1-6.5
		c1.3-3,3.4-5.5,6.2-7.4c2-1.3,4.1-2.1,6.4-2.6c1.5-0.3,3.1-0.5,4.7-0.7c0.2,0,0.4,0.1,0.6,0.2v0.9c-0.1,0.6-0.2,1.2-0.3,1.7
		c-0.8,4.6-3.2,8.8-6.7,12c-1.6,1.5-3.4,2.8-5.5,3.7c-1,0.5-2.2,0.7-3.3,0.7C970.5,558.6,970.3,558.6,970,558.5L970,558.5z
		 M962.4,549.4c-4-2.2-6.6-6.2-7-10.8c0-0.2,0-0.3,0.1-0.5h0.7c0.7,0.1,1.5,0.2,2.2,0.4c1.8,0.3,3.4,1,4.9,2c2.2,1.6,3.7,4,4.2,6.7
		c0.1,0.6,0.1,1.1,0,1.7c0,0.2,0,0.4-0.2,0.4c-0.2,0-0.3-0.1-0.4-0.3c-1.1-1.7-2.4-3.3-3.8-4.8c-0.5-0.5-1.1-0.9-1.7-1.4
		c0,0-0.1-0.1-0.2-0.1c0.5,0.6,1,1.1,1.5,1.7c1.4,1.6,2.5,3.3,3.4,5.2c0.2,0.4,0.1,0.6-0.4,0.6c-0.1,0-0.2,0-0.3,0
		C964.4,550.2,963.3,549.9,962.4,549.4L962.4,549.4z"/>
</g>
</svg>
