<?xml version="1.0" encoding="utf-8"?>
<!-- Generator: Adobe Illustrator 26.0.1, SVG Export Plug-In . SVG Version: 6.00 Build 0)  -->
<svg version="1.1" id="Layer_1" xmlns="http://www.w3.org/2000/svg" xmlns:xlink="http://www.w3.org/1999/xlink" x="0px" y="0px"
	 viewBox="0 0 20 20" style="enable-background:new 0 0 20 20;" xml:space="preserve">
<style type="text/css">
	.st0{fill:#0080B9;}
</style>
<path id="Facebook-6" class="st0" d="M17.6,1.5H2.5c-0.5,0-1,0.4-1,0.9l0,0l0,0v15.1c0,0.5,0.4,0.9,0.9,0.9l0,0h8.1v-6.5H8.4V9.4
	h2.2V7.5c-0.2-1.7,1.1-3.2,2.8-3.4c0.2,0,0.3,0,0.5,0c0.7,0,1.3,0,2,0.1v2.3h-1.4c-1.1,0-1.3,0.5-1.3,1.2v1.6h2.5l-0.3,2.6h-2.2v6.6
	h4.3c0.5,0,0.9-0.4,0.9-0.9l0,0l0,0V2.4C18.5,1.9,18.1,1.5,17.6,1.5L17.6,1.5z"/>
</svg>
