<?xml version="1.0" encoding="utf-8"?>
<!-- Generator: Adobe Illustrator 26.0.1, SVG Export Plug-In . SVG Version: 6.00 Build 0)  -->
<svg version="1.1" id="Layer_1" xmlns="http://www.w3.org/2000/svg" xmlns:xlink="http://www.w3.org/1999/xlink" x="0px" y="0px"
	 viewBox="0 0 20 20" style="enable-background:new 0 0 20 20;" xml:space="preserve">
<style type="text/css">
	.st0{fill:#0080B9;}
</style>
<g id="Group_137" transform="translate(-6203 -1573)">
	<g id="Group_139" transform="translate(6203 1573)">
		<path id="Path_74" class="st0" d="M6.9,9.3l-1.2,1.4c-0.8,0.9-1.6,1.8-2.4,2.7c-0.1,0.1-0.1,0.2-0.2,0.4c0.2,0.1,0.3-0.1,0.4-0.1
			c1.4-1.2,2.8-2.4,4.2-3.5c0.1-0.1,0.1-0.1,0.2-0.2c0.4,0.2,0.7,0.5,1.1,0.7c0.6,0.4,1.5,0.4,2.1,0c0.4-0.2,0.7-0.5,1.1-0.7
			c0.3,0.3,0.7,0.6,1,0.8c1.1,1,2.3,1.9,3.4,2.9c0.1,0.1,0.2,0.1,0.4,0.2c0-0.1-0.1-0.2-0.2-0.4c-1.2-1.3-2.3-2.6-3.5-3.9
			c0-0.1-0.1-0.1-0.2-0.2l0.1-0.1c1.8-1.2,3.6-2.4,5.4-3.6c0.2-0.1,0.3-0.2,0.5-0.3c0.2-0.1,0.3-0.1,0.3,0.2c0,0.9,0,1.9,0,2.8
			c0,2.2,0,4.3,0,6.5c0,0.6-0.5,1.1-1.1,1.1l0,0H1.7c-0.6,0-1.2-0.5-1.2-1.1c0,0,0,0,0-0.1c0-3,0-6,0-9c0-0.2,0-0.3,0.1-0.4
			c0.2,0,0.3,0.1,0.5,0.2C2.4,6.3,3.6,7.2,4.9,8c0.6,0.4,1.2,0.8,1.8,1.2C6.8,9.2,6.8,9.3,6.9,9.3z"/>
		<path id="Path_75" class="st0" d="M10,4.1h8.6c0.1,0,0.2,0,0.4,0c0.3,0,0.4,0.3,0.2,0.6C19.1,4.8,19,4.9,18.9,5
			c-2.6,1.4-5.2,2.9-7.9,4.3c-0.6,0.3-1.4,0.3-2,0C6.5,7.9,3.9,6.5,1.3,5.1C1.1,5,1,4.9,0.9,4.7C0.6,4.5,0.7,4.2,1.1,4.2
			c0.1,0,0.2,0,0.4,0L10,4.1z"/>
	</g>
</g>
</svg>
