<?xml version="1.0" encoding="utf-8"?>
<!-- Generator: Adobe Illustrator 26.0.1, SVG Export Plug-In . SVG Version: 6.00 Build 0)  -->
<svg version="1.1" id="Layer_1" xmlns="http://www.w3.org/2000/svg" xmlns:xlink="http://www.w3.org/1999/xlink" x="0px" y="0px"
	 viewBox="0 0 20 20" style="enable-background:new 0 0 20 20;" xml:space="preserve">
<style type="text/css">
	.st0{fill:#0080B9;}
	.st1{fill-rule:evenodd;clip-rule:evenodd;fill:#0080B9;}
</style>
<g id="Group_668" transform="translate(-6.583 -6.622)">
	<g id="whatsApp-6" transform="translate(6.583 6.622)">
		<path id="Path_25" class="st0" d="M1.5,18.5l1.2-4.4c-2.3-4-0.9-9.2,3.1-11.5S15,1.7,17.3,5.7s0.9,9.2-3.1,11.5l0,0
			c-1.3,0.7-2.7,1.1-4.2,1.1l0,0c-1.4,0-2.8-0.3-4-1L1.5,18.5z M6.2,15.8l0.2,0.1c1.1,0.6,2.3,1,3.6,1l0,0c3.9,0,7-3.1,7-7
			s-3.1-7-7-7C6.1,3,3,6.1,3,10c0,1.3,0.4,2.6,1.1,3.7l0.2,0.2l-0.7,2.6L6.2,15.8z"/>
		<path id="Path_26" class="st1" d="M14.3,11.9c-0.1-0.1-0.2-0.1-0.4-0.2s-1.2-0.6-1.5-0.7s-0.3-0.1-0.5,0.1
			c-0.2,0.3-0.4,0.6-0.7,0.8c-0.1,0.1-0.2,0.1-0.5,0c-0.6-0.3-1.2-0.6-1.7-1C8.6,10.5,8.3,10,7.9,9.5C7.8,9.3,7.9,9.2,8,9.1l0,0l0,0
			C8.1,9,8.2,8.9,8.3,8.7c0.1-0.1,0.2-0.2,0.2-0.4c0.1-0.1,0.1-0.2,0-0.4c0,0-0.4-1.1-0.6-1.5S7.5,6.1,7.4,6.1H7
			c-0.2,0-0.4,0.1-0.6,0.2C6,6.8,5.7,7.4,5.7,8.1c0.1,0.8,0.4,1.5,0.9,2.2c0.9,1.3,2.1,2.4,3.6,3.2c0.4,0.2,0.8,0.3,1.2,0.5
			c0.4,0.1,0.9,0.2,1.3,0.1c0.6-0.1,1.1-0.5,1.4-1C14.3,12.6,14.3,12.3,14.3,11.9z"/>
	</g>
</g>
</svg>
