<?xml version="1.0" encoding="utf-8"?>
<!-- Generator: Adobe Illustrator 26.0.1, SVG Export Plug-In . SVG Version: 6.00 Build 0)  -->
<svg version="1.1" id="Layer_1" xmlns="http://www.w3.org/2000/svg" xmlns:xlink="http://www.w3.org/1999/xlink" x="0px" y="0px"
	 viewBox="0 0 20 20" style="enable-background:new 0 0 20 20;" xml:space="preserve">
<style type="text/css">
	.st0{fill:#0080B9;}
</style>
<g id="Group_140" transform="translate(0)">
	<path id="Path_76" class="st0" d="M14.3,1.5c0.2,0.1,0.5,0.1,0.7,0.2c1.5,0.6,2.2,2.3,1.6,3.8c-0.1,0.4-0.4,0.7-0.6,1
		c-0.5,0.5-1,1-1.6,1.6c-0.9,0.9-1.9,1.9-2.8,2.8c-0.8,0.9-2.1,1.1-3.2,0.7c-0.1,0-0.1-0.1-0.2-0.1c0.3-0.3,0.5-0.5,0.7-0.7
		c0.1-0.1,0.3-0.2,0.4-0.2c0.5,0,1-0.1,1.3-0.5c1.5-1.5,3-2.9,4.4-4.4C15.7,5,15.7,4,15,3.3c-0.3-0.3-0.6-0.4-0.9-0.5
		c-0.5-0.1-1.1,0.1-1.4,0.4c-0.8,0.8-1.6,1.6-2.4,2.4c-0.6,0.6-1.3,1.3-2,2C7.9,8,7.7,8.6,7.8,9.1v0.1c-0.3,0.3-0.6,0.6-0.9,0.9
		c-0.3-0.5-0.4-1-0.3-1.6C6.7,7.8,7,7.1,7.5,6.7c1.4-1.4,2.8-2.8,4.2-4.2c0.5-0.5,1.1-0.8,1.8-0.9l0,0L14.3,1.5z"/>
	<path id="Path_77" class="st0" d="M11.8,8.5c-0.3,0.3-0.6,0.6-0.9,0.9c0,0-0.1,0-0.2,0c-0.5-0.1-1.1,0.1-1.4,0.5
		c-1.5,1.5-3,3-4.5,4.5c-0.7,0.7-0.7,1.7,0,2.4c0.7,0.7,1.7,0.7,2.4,0l0,0c1.5-1.5,3-3,4.5-4.5c0.4-0.4,0.5-0.9,0.5-1.4v-0.1
		c0.3-0.3,0.6-0.6,0.9-0.9c0.2,0.3,0.3,0.7,0.3,1c0.1,0.8-0.2,1.7-0.8,2.3c-1.5,1.5-3,3-4.5,4.5c-0.9,0.8-2.2,1-3.3,0.5
		S3,16.6,3.1,15.4c0-0.7,0.3-1.4,0.8-1.9c1.5-1.5,2.9-3,4.4-4.4c0.8-0.8,2.1-1.1,3.2-0.6C11.6,8.4,11.7,8.5,11.8,8.5z"/>
</g>
</svg>
