<?xml version="1.0" encoding="utf-8"?>
<!-- Generator: Adobe Illustrator 26.0.2, SVG Export Plug-In . SVG Version: 6.00 Build 0)  -->
<svg version="1.1" id="Layer_1" xmlns="http://www.w3.org/2000/svg" xmlns:xlink="http://www.w3.org/1999/xlink" x="0px" y="0px"
	 viewBox="0 0 30 30" style="enable-background:new 0 0 30 30;" xml:space="preserve">
<style type="text/css">
	.st0{fill:none;}
	.st1{fill:#21456B;}
	.st2{fill:#FFFFFF;}
</style>
<path class="st0" d="M6,6h18v18H6V6z"/>
<g>
	<path class="st1" d="M15,30L15,30C6.7,30,0,23.3,0,15l0,0C0,6.7,6.7,0,15,0l0,0c8.3,0,15,6.7,15,15l0,0C30,23.3,23.3,30,15,30z"/>
	<g>
		<path class="st2" d="M15,6.6c-2.3,0-2.6,0-3.5,0c-0.7,0-1.4,0.1-2,0.4C8.4,7.4,7.4,8.4,7,9.5c-0.2,0.7-0.4,1.3-0.4,2
			c0,0.9,0,1.2,0,3.5s0,2.6,0,3.5c0,0.7,0.1,1.4,0.4,2c0.4,1.1,1.3,2,2.5,2.5c0.7,0.2,1.3,0.4,2,0.4c0.9,0,1.2,0,3.5,0s2.6,0,3.5,0
			c0.7,0,1.4-0.1,2-0.4c1.1-0.4,2-1.3,2.5-2.5c0.2-0.7,0.4-1.3,0.4-2c0-0.9,0-1.2,0-3.5s0-2.6,0-3.5c0-0.7-0.1-1.4-0.4-2
			c-0.4-1.1-1.3-2-2.5-2.5c-0.7-0.2-1.3-0.4-2-0.4C17.6,6.6,17.3,6.6,15,6.6z M15,8.1c2.2,0,2.5,0,3.4,0c0.5,0,1.1,0.1,1.6,0.3
			c0.7,0.3,1.3,0.8,1.6,1.6c0.2,0.5,0.3,1,0.3,1.6c0,0.9,0,1.2,0,3.4s0,2.5,0,3.4c0,0.5-0.1,1.1-0.3,1.6c-0.3,0.7-0.8,1.3-1.6,1.6
			c-0.5,0.2-1,0.3-1.6,0.3c-0.9,0-1.2,0-3.4,0s-2.5,0-3.4,0c-0.5,0-1.1-0.1-1.6-0.3c-0.7-0.3-1.3-0.8-1.6-1.6
			c-0.2-0.5-0.3-1-0.3-1.6c0-0.9,0-1.2,0-3.4s0-2.5,0-3.4c0-0.5,0.1-1.1,0.3-1.6C8.7,9.3,9.2,8.7,10,8.4c0.5-0.2,1-0.3,1.6-0.3
			C12.5,8.1,12.8,8.1,15,8.1"/>
		<path class="st2" d="M15,17.8c-1.6,0-2.8-1.3-2.8-2.8s1.3-2.8,2.8-2.8c1.6,0,2.8,1.3,2.8,2.8C17.8,16.6,16.6,17.8,15,17.8z
			 M15,10.7c-2.4,0-4.3,1.9-4.3,4.3s1.9,4.3,4.3,4.3s4.3-1.9,4.3-4.3S17.4,10.7,15,10.7z"/>
		<path class="st2" d="M19.5,9.5c0.3,0,0.5,0.1,0.7,0.3s0.3,0.4,0.3,0.7s-0.1,0.5-0.3,0.7s-0.4,0.3-0.7,0.3c-0.3,0-0.5-0.1-0.7-0.3
			s-0.3-0.4-0.3-0.7s0.1-0.5,0.3-0.7C19,9.6,19.2,9.5,19.5,9.5z"/>
	</g>
</g>
</svg>
