<?xml version="1.0" encoding="utf-8"?>
<!-- Generator: Adobe Illustrator 23.1.0, SVG Export Plug-In . SVG Version: 6.00 Build 0)  -->

<svg xmlns="http://www.w3.org/2000/svg" xmlns:xlink="http://www.w3.org/1999/xlink" width="127.427" height="89.3" viewBox="0 0 127.427 89.3">
  <defs>
    <linearGradient id="linear-gradient" x1="0.5" x2="0.5" y2="1" gradientUnits="objectBoundingBox">
      <stop offset="0" stop-color="#7da670"/>
      <stop offset="1" stop-color="#b4e66e"/>
    </linearGradient>
  </defs>
  <path id="envieroment_icon_blu" data-name="envieroment icon blu" d="M4294.58,6322.823c-9.591-4.8-17.366-11.841-23.955-20.234-8.5-10.82-12.767-23.329-13.962-36.98-.105-1.263.406-1.861,1.608-1.761,12.341,1.041,24.253,3.607,35.074,10.028a51.068,51.068,0,0,1,14.691,13.813,50.064,50.064,0,0,1,9.653,21.11,35.612,35.612,0,0,1,.289,11.01c-.093.729-.2,1.464-1.074,1.66s-1.288-.339-1.693-.99a131.518,131.518,0,0,0-16.42-21.458,93.335,93.335,0,0,0-12.835-11.307c-.188-.137-.381-.254-.63-.423,3.135,3.482,6.278,6.787,9.217,10.265a112.649,112.649,0,0,1,16.748,26.047c.8,1.754.4,2.43-1.541,2.605q-1.033.092-2.049.092A29.144,29.144,0,0,1,4294.58,6322.823Zm33.523-15.917c-1.615-.176-2.078-.942-1.4-2.435a119.8,119.8,0,0,1,19.158-29.317c2.644-3.05,5.439-5.967,8.15-9.03-.313.219-.633.433-.939.658-10.185,7.487-18.5,16.786-25.733,27.112-1.6,2.291-3.094,4.65-4.613,6.994-.427.663-.84,1.278-1.747,1.106-.925-.183-1.057-.916-1.163-1.7a39.794,39.794,0,0,1,3.614-22.232c4.706-10.28,11.49-18.9,20.92-25.2a62.226,62.226,0,0,1,21.849-8.827c5.223-1.119,10.544-1.729,15.844-2.479a5.531,5.531,0,0,1,2.035.564v3.075c-.321,1.972-.605,3.955-.968,5.924A71.106,71.106,0,0,1,4360.432,6292c-5.585,5.092-11.554,9.595-18.566,12.525a29.148,29.148,0,0,1-11.275,2.518A22.776,22.776,0,0,1,4328.1,6306.906Zm-25.8-31.373c-13.892-8.35-22.161-20.441-23.755-36.866a6.863,6.863,0,0,1,.235-1.667h2.233c2.468.408,4.951.733,7.395,1.246,5.98,1.262,11.785,3.106,16.684,6.918,7.506,5.849,12.717,13.29,14.186,22.957a35.536,35.536,0,0,1,.087,5.816c-.008.572,0,1.432-.812,1.41a1.933,1.933,0,0,1-1.251-.941,82.865,82.865,0,0,0-13.077-16.268c-1.8-1.7-3.767-3.217-5.67-4.811a.843.843,0,0,0-.522-.219c1.722,1.9,3.485,3.763,5.162,5.71a75.663,75.663,0,0,1,11.571,17.734c.69,1.508.444,1.929-1.242,2.03-.337.019-.671.028-1,.028A19.713,19.713,0,0,1,4302.3,6275.533Z" transform="translate(-4256.649 -6237)" fill="url(#linear-gradient)"/>
</svg>
