<?xml version="1.0" encoding="utf-8"?>
<!-- Generator: Adobe Illustrator 25.4.1, SVG Export Plug-In . SVG Version: 6.00 Build 0)  -->
<svg version="1.1" id="Layer_1" xmlns="http://www.w3.org/2000/svg" xmlns:xlink="http://www.w3.org/1999/xlink" x="0px" y="0px"
	 viewBox="0 0 30 30" style="enable-background:new 0 0 30 30;" xml:space="preserve">
<style type="text/css">
	.st0{fill:none;}
	.st1{fill:url(#SVGID_1_);}
	.st2{fill:#FFFFFF;}
</style>
<path class="st0" d="M6,6h18v18H6V6z"/>
<g>
	
		<linearGradient id="SVGID_1_" gradientUnits="userSpaceOnUse" x1="15" y1="2" x2="15" y2="32" gradientTransform="matrix(1 0 0 -1 0 32)">
		<stop  offset="0" style="stop-color:#B1E26E"/>
		<stop  offset="1" style="stop-color:#7EA770"/>
	</linearGradient>
	<path class="st1" d="M15,30L15,30C6.7,30,0,23.3,0,15l0,0C0,6.7,6.7,0,15,0l0,0c8.3,0,15,6.7,15,15l0,0C30,23.3,23.3,30,15,30z"/>
</g>
<g id="Group_139_00000139276391912842345710000001075718855064086975_" transform="translate(6203 1573)">
	<path id="Path_74" class="st2" d="M-6190.1-1558.1l-1,1.2c-0.7,0.8-1.3,1.5-2,2.3c-0.1,0.1-0.1,0.2-0.1,0.3c0.1,0.1,0.2,0,0.3-0.1
		c1.2-1,2.3-2,3.5-3l0.2-0.1c0.3,0.2,0.6,0.4,0.9,0.6c0.5,0.3,1.2,0.3,1.8,0c0.3-0.2,0.6-0.4,0.9-0.6l0.8,0.7c1,0.8,1.9,1.6,2.9,2.4
		c0.1,0.1,0.2,0.1,0.3,0.1c0-0.1-0.1-0.2-0.1-0.3c-1-1.1-1.9-2.2-2.9-3.3l-0.1-0.2c0,0,0.1-0.1,0.1-0.1c1.5-1,3-2,4.5-3.1
		c0.1-0.1,0.3-0.2,0.4-0.3c0.2-0.1,0.3,0,0.3,0.2c0,0.8,0,1.6,0,2.3c0,1.8,0,3.6,0,5.4c0,0.5-0.4,0.9-0.9,0.9c0,0,0,0,0,0h-14
		c-0.5,0-1-0.4-1-0.9c0,0,0,0,0-0.1c0-2.5,0-5,0-7.5c0-0.1,0-0.3,0.1-0.4c0.1,0,0.3,0.1,0.4,0.1c1.1,0.7,2.2,1.5,3.3,2.2
		c0.5,0.3,1,0.7,1.5,1C-6190.2-1558.2-6190.2-1558.2-6190.1-1558.1z"/>
	<path id="Path_75" class="st2" d="M-6187.5-1562.5h7.2c0.1,0,0.2,0,0.3,0c0.3,0,0.4,0.3,0.2,0.5c-0.1,0.1-0.2,0.2-0.3,0.2
		c-2.2,1.2-4.4,2.4-6.6,3.6c-0.5,0.3-1.1,0.3-1.6,0c-2.2-1.2-4.3-2.3-6.5-3.5c-0.1-0.1-0.3-0.2-0.4-0.3c-0.2-0.2-0.1-0.5,0.2-0.5
		c0.1,0,0.2,0,0.3,0L-6187.5-1562.5z"/>
</g>
</svg>
