<?xml version="1.0" encoding="utf-8"?>
<!-- Generator: Adobe Illustrator 26.2.1, SVG Export Plug-In . SVG Version: 6.00 Build 0)  -->
<svg version="1.1" id="Layer_1" xmlns="http://www.w3.org/2000/svg" xmlns:xlink="http://www.w3.org/1999/xlink" x="0px" y="0px"
	 viewBox="0 0 100 100" style="enable-background:new 0 0 100 100;" xml:space="preserve">
<style type="text/css">
	.st0{fill:#C80A0A;}
</style>
<g>
	<g>
		<path class="st0" d="M0,78.5C0,65.8,0,53,0,40.2c0,0,0.1,0.1,0.1,0.1c0.1,0,0.1-0.1,0.1-0.1c1-2.3,2.9-2.8,5.2-2.7c2,0.1,4,0,6,0
			c0.8,0,1-0.2,1-1c0-9.2,0-18.3,0-27.5c0-4.3,1.9-7.1,5.9-8.6C18.5,0.3,19,0.4,18.8,0c18,0,36.1,0,54.1,0c-0.1,0.4,0.2,0.5,0.4,0.7
			c8.7,8.7,17.3,17.5,26,26.2c0.2,0.2,0.3,0.6,0.7,0.5c0,22.1,0,44.3,0,66.4c0,0-0.1-0.1-0.1-0.1c-0.1,0.1-0.1,0.2-0.2,0.2
			c-0.9,2.9-2.9,4.9-5.8,5.8c-0.1,0-0.4,0-0.2,0.3c-25.1,0-50.1,0-75.2,0c0,0,0.1,0,0.1-0.1c0,0,0.1,0,0-0.1
			c-0.1-0.2-0.3-0.2-0.5-0.3c-3.9-1.6-5.7-4.3-5.7-8.5c0-3,0-5.9,0-8.9c0-0.8-0.2-1-1-1c-2.4,0.1-4.8,0-7.2,0c-1.7,0-3-0.8-3.8-2.3
			C0.4,78.8,0.4,78.4,0,78.5z M56.2,93.7c11.7,0,23.4,0,35.1,0c1.7,0,2.5-0.8,2.5-2.5c0-20,0-40.1,0-60.1c0-1.4-0.6-1.9-2-1.9
			c-3.6,0-7.3,0-10.9,0c-5.9,0-10-4.1-10-10c0-3.7,0-7.4,0-11.1c0-1.3-0.5-1.8-1.8-1.8c-15.8,0-31.6,0-47.5,0
			c-2.1,0-2.9,0.8-2.9,2.9c0,9.1,0,18.2,0,27.2c0,1,0.3,1.1,1.2,1.1c20,0,40.1,0,60.1,0c0.4,0,0.7,0,1.1,0c2.7,0.1,4.3,1.8,4.3,4.5
			c0,11.6,0,23.2,0,34.9c0,2.8-1.7,4.4-4.5,4.4c-5.8,0-11.7,0-17.5,0c-14.5,0-29,0-43.5,0c-1,0-1.2,0.3-1.2,1.2c0.1,2.9,0,5.8,0,8.7
			c0,1.8,0.8,2.6,2.6,2.6C33,93.7,44.6,93.7,56.2,93.7z M33.2,59.5c0,4.2,0,8.4,0,12.6c0,0.6,0.1,0.9,0.8,0.9
			c3.5-0.1,7,0.1,10.5-0.1c4.4-0.2,8.1-1.9,10.1-6.1c1.3-2.7,1.5-5.6,1.4-8.6c-0.3-7-4.5-11.4-11.4-11.9c-3.5-0.3-7-0.1-10.5-0.1
			c-0.7,0-0.9,0.2-0.9,0.9C33.2,51.2,33.2,55.4,33.2,59.5z M8.6,59.5c0,4.2,0,8.4,0,12.6c0,0.7,0.2,0.9,0.9,0.9c0.8,0,1.7-0.1,2.5,0
			c0.8,0.1,1.1-0.2,1.1-1c-0.1-2.8,0-5.5,0-8.3c0-0.8,0.2-1,1-1c2.7,0,5.4,0.2,8.1-0.1c4.3-0.5,6.8-2.7,7.2-6.9
			c0.5-4.3-1.1-7.5-5.2-8.8c-0.8-0.2-1.6-0.4-2.5-0.5c-4.1-0.3-8.1-0.1-12.2-0.2c-0.8,0-1,0.3-1,1C8.6,51.2,8.6,55.4,8.6,59.5z
			 M60.2,59.5c0,4.2,0,8.4,0,12.6c0,0.7,0.2,0.9,0.9,0.9c0.8,0,1.6-0.1,2.4,0c0.9,0.1,1.2-0.2,1.2-1.1c-0.1-3.3,0-6.5,0-9.8
			c0-0.8,0.2-1,1-1c3.2,0,6.3,0,9.5,0c2.6,0,2.6,0,2.6-2.6c0-1-0.2-1.3-1.2-1.3c-3.7,0.1-7.4,0-11,0c-0.7,0-0.9-0.2-0.9-0.9
			c0-1.9,0-3.7,0-5.6c0-0.8,0.2-1,1-1c3.4,0,6.7,0,10.1,0c0.9,0,2.1,0.4,2.6-0.2c0.6-0.6,0.1-1.8,0.2-2.7c0.1-0.8-0.2-0.9-0.9-0.9
			c-5.5,0-10.9,0-16.4,0c-0.8,0-1,0.2-1,1C60.2,51.2,60.2,55.4,60.2,59.5z"/>
		<path class="st0" d="M41.4,49.9c1.1,0.1,2.5,0,3.8,0.3c3.4,0.6,5.4,2.5,6.1,5.8c0.5,2.1,0.5,4.3,0.1,6.4c-0.7,4.1-3.1,6.3-7.4,6.7
			c-1.9,0.2-3.9,0-5.8,0.1c-0.8,0-0.6-0.5-0.6-0.9c0-3.7,0-7.5,0-11.2c0-2.1,0-4.2,0-6.2c0-0.7,0.2-0.9,0.9-0.9
			C39.4,49.9,40.3,49.9,41.4,49.9z"/>
		<path class="st0" d="M13.1,54.4c0-1.2,0-2.5,0-3.7c0-0.4-0.1-0.8,0.5-0.7c2.7,0,5.3-0.2,8,0.2c2.5,0.4,3.6,1.8,3.5,4.4
			c-0.1,2.5-1.2,3.8-3.6,4.2c-2.6,0.4-5.2,0.1-7.8,0.2c-0.5,0-0.6-0.3-0.6-0.7C13.1,57,13.1,55.7,13.1,54.4z"/>
	</g>
</g>
</svg>
