<?xml version="1.0" encoding="utf-8"?>
<!-- Generator: Adobe Illustrator 25.4.1, SVG Export Plug-In . SVG Version: 6.00 Build 0)  -->
<svg version="1.1" id="Layer_1" xmlns="http://www.w3.org/2000/svg" xmlns:xlink="http://www.w3.org/1999/xlink" x="0px" y="0px"
	 viewBox="0 0 47 36" style="enable-background:new 0 0 47 36;" xml:space="preserve">
<style type="text/css">
	.st0{opacity:0.8;fill:#383838;enable-background:new    ;}
	.st1{fill:#FFFFFF;}
</style>
<path id="Rectangle_214" class="st0" d="M4,0h39c2.2,0,4,1.8,4,4v28c0,2.2-1.8,4-4,4H4c-2.2,0-4-1.8-4-4V4C0,1.8,1.8,0,4,0z"/>
<path id="Subtraction_1" class="st1" d="M40.5,32.3H12c-0.6,0-1-0.4-1-1v-3.1h25.3c0.6,0,1-0.4,1-1V11.6h3.2c0.6,0,1,0.4,1,1v18.7
	C41.5,31.9,41.1,32.3,40.5,32.3z"/>
<path id="Rectangle_211" class="st1" d="M6.5,6.3h28c0.6,0,1,0.4,1,1v18c0,0.6-0.4,1-1,1h-28c-0.6,0-1-0.4-1-1v-18
	C5.5,6.8,5.9,6.3,6.5,6.3z"/>
</svg>
