<?xml version="1.0" encoding="utf-8"?>
<!-- Generator: Adobe Illustrator 26.0.1, SVG Export Plug-In . SVG Version: 6.00 Build 0)  -->
<svg version="1.1" id="Layer_1" xmlns="http://www.w3.org/2000/svg" xmlns:xlink="http://www.w3.org/1999/xlink" x="0px" y="0px"
	 viewBox="0 0 74.4 80.1" style="enable-background:new 0 0 74.4 80.1;" xml:space="preserve">
<style type="text/css">
	.st0{fill:url(#money_icon_bl_00000023276634868711656200000001142018924628197255_);}
</style>
<linearGradient id="money_icon_bl_00000168095269912671205960000005705515469717742215_" gradientUnits="userSpaceOnUse" x1="-909.1175" y1="574.7723" x2="-909.1175" y2="573.7723" gradientTransform="matrix(74.4597 0 0 -80.1255 67729.8594 46053.9102)">
	<stop  offset="0" style="stop-color:#7DA670"/>
	<stop  offset="1" style="stop-color:#B4E66E"/>
</linearGradient>
<path id="money_icon_bl" style="fill:url(#money_icon_bl_00000168095269912671205960000005705515469717742215_);" d="M23.3,79.3
	c-4.2-0.3-8.4-1.2-12.4-2.7c-5.7-2-9.8-7.1-10.5-13.1C-0.8,56.2,0.8,48.7,5,42.6c4.4-6.9,11-12.2,18.6-15.1c0.3-0.1,0.6-0.1,0.8,0
	c2.2,1.5,4.7,2.3,7.3,2.5c3.4,0.4,6.9,0.1,10.2-0.8c1.6-0.4,3.1-1.2,4.3-2.3c0.4-0.4,1-0.5,1.5-0.3c10.8,3.6,19,10.3,24.1,20.5
	c2.9,5.9,3.5,12.8,1.5,19.1c-1.5,5-4.9,8.2-9.5,10.2c-3.7,1.6-7.6,2.5-11.6,2.8c-5,0.4-10.1,0.7-14.5,1
	C32.4,79.8,27.8,79.7,23.3,79.3z M27.9,58.7c-0.3,1-0.6,2.1-0.9,3.1c-0.1,0.4-0.1,0.7,0.4,0.8c1.6,0.8,3.4,1.2,5.2,1.4
	c0.4,0,0.6,0.2,0.6,0.6c0,0.8,0,1.6,0,2.3c0,0.5,0.2,0.8,0.8,0.8c0.5,0,0.9,0,1.4,0c0.4,0,0.7,0,1.1,0c0.9,0,1-0.2,1-1c0-1,0-2,0-3
	c0.5-0.2,0.9-0.3,1.3-0.4c2.3-0.9,4.1-2.3,4.5-5c0.4-2.9-0.3-5.4-2.8-7.1c-1.1-0.7-2.2-1.3-3.4-1.8c-1.1-0.5-2.3-1-3.4-1.6
	c-0.8-0.5-1.1-1.5-0.6-2.4c0.2-0.3,0.4-0.5,0.7-0.7c0.6-0.3,1.2-0.5,1.9-0.6c1.7-0.2,3.4,0.2,5,1c0.4,0.2,0.8,0.3,0.9-0.2
	c0.3-1,0.6-2.1,0.8-3.1c0.1-0.3,0-0.7-0.3-0.8c-0.1,0-0.1,0-0.2,0c-1.5-0.5-3.1-0.9-4.7-1.4c0-0.7,0-1.6,0-2.6
	c0.1-0.4-0.2-0.8-0.6-0.9c-0.1,0-0.2,0-0.2,0c-0.9,0-1.7,0-2.6,0c-0.6,0-0.9,0.3-0.9,0.9c0,0.7,0,1.3,0,2c0,0.6-0.1,0.9-0.7,1
	c-0.5,0.1-1,0.3-1.5,0.6c-4.4,2.2-5.1,8.2-1.1,11c1.4,0.8,2.9,1.6,4.4,2.2c0.9,0.4,1.8,0.8,2.6,1.3c0.8,0.6,1.1,1.6,0.9,2.5
	c-0.2,0.9-0.9,1.6-1.8,1.8c-0.8,0.2-1.6,0.2-2.4,0.2c-1.6-0.1-3.1-0.6-4.5-1.3c-0.1-0.1-0.3-0.1-0.5-0.2
	C28.1,58.3,28,58.4,27.9,58.7L27.9,58.7z M26.6,24.3c-1.3-0.4-2.4-1.5-2.7-2.8c-1.3-3.5-2.7-6.9-4.1-10.3c-0.4-0.8-0.7-1.6-1-2.4
	C18.2,6.9,19.1,5.9,21,6c1.4,0.1,2.8,0.3,4.2,0.3c0.8,0,1.6,0,2.3-0.2C28.9,6,30,5.1,30.3,3.8c0.4-1.7,1.6-3,3.1-3.8H36
	c1.4,0.8,2.5,2.2,3,3.8c0.8,2.1,1.6,2.4,3.5,1.1c1-0.7,1.9-1.6,3.1-1.7C46.2,3,46.8,3,47.5,3c1,0,1.8,0.8,1.8,1.8c0,0,0,0,0,0
	c0,0.8-0.2,1.5-0.5,2.3c-2,3.8-3.3,7.9-3.8,12.1c-0.1,0.6-0.1,1.2,0,1.7c0.2,1.1-0.4,2.2-1.4,2.6c-1.1,0.6-2.2,1-3.4,1.4
	c-1.7,0.5-3.5,0.7-5.2,0.7C32.1,25.7,29.3,25.2,26.6,24.3L26.6,24.3z"/>
</svg>
