<?xml version="1.0" encoding="utf-8"?>
<!-- Generator: Adobe Illustrator 25.4.1, SVG Export Plug-In . SVG Version: 6.00 Build 0)  -->
<svg version="1.1" id="Layer_1" xmlns="http://www.w3.org/2000/svg" xmlns:xlink="http://www.w3.org/1999/xlink" x="0px" y="0px"
	 viewBox="0 0 14 14" style="enable-background:new 0 0 14 14;" xml:space="preserve">
<g id="Group_141" transform="translate(608.053 -534.691)">
	<path id="Path_79" d="M-598.7,537.4v-1.3l3.6,3.6l-3.6,3.7v-1.5c-2.3-0.2-4.6,0.9-5.9,2.9c0.1-0.3,0.1-0.6,0.2-1
		c0.2-1.3,0.7-2.5,1.5-3.6c1-1.4,2.4-2.4,4.1-2.8C-598.8,537.4-598.8,537.4-598.7,537.4C-598.7,537.4-598.7,537.4-598.7,537.4z"/>
	<path id="Path_80" d="M-602,537.5c-0.4,0.4-0.7,0.7-1,1c-0.1,0-0.1,0.1-0.2,0.1c-0.8,0-1.6,0-2.4,0h-0.2v7.5h7.2c0-0.4,0-0.9,0-1.3
		c0-0.1,0-0.3,0.1-0.3c0.3-0.3,0.6-0.6,1-1c0,0.1,0,0.1,0,0.2c0,0.9,0,1.8,0,2.7c0,0.4-0.3,0.8-0.7,0.9c0,0-0.1,0-0.1,0
		c-2.6,0-5.2,0-7.7,0c-0.4,0-0.8-0.3-0.9-0.7c0,0,0-0.1,0-0.1c0-2.7,0-5.4,0-8.1c0-0.4,0.3-0.8,0.7-0.8c0,0,0.1,0,0.1,0
		C-604.8,537.5-603.5,537.5-602,537.5C-602.1,537.5-602,537.5-602,537.5z"/>
</g>
</svg>
