<?xml version="1.0" encoding="utf-8"?>
<!-- Generator: Adobe Illustrator 25.4.1, SVG Export Plug-In . SVG Version: 6.00 Build 0)  -->
<svg version="1.1" id="Layer_1" xmlns="http://www.w3.org/2000/svg" xmlns:xlink="http://www.w3.org/1999/xlink" x="0px" y="0px"
	 viewBox="0 0 30 30" style="enable-background:new 0 0 30 30;" xml:space="preserve">
<style type="text/css">
	.st0{fill:none;}
	.st1{fill:url(#SVGID_1_);}
	.st2{fill:#FFFFFF;}
</style>
<path class="st0" d="M6,6h18v18H6V6z"/>
<g>
	
		<linearGradient id="SVGID_1_" gradientUnits="userSpaceOnUse" x1="15" y1="423.1968" x2="15" y2="393.1968" gradientTransform="matrix(1 0 0 1 0 -393.1968)">
		<stop  offset="0" style="stop-color:#B1E26E"/>
		<stop  offset="1" style="stop-color:#7EA770"/>
	</linearGradient>
	<path class="st1" d="M15,30L15,30C6.7,30,0,23.3,0,15l0,0C0,6.7,6.7,0,15,0l0,0c8.3,0,15,6.7,15,15l0,0C30,23.3,23.3,30,15,30z"/>
</g>
<path class="st2" d="M20.2,9.9H9.8c-0.7,0-1.3,0.6-1.3,1.3V23l2.6-2.6h9.2c0.7,0,1.3-0.6,1.3-1.3v-7.8C21.5,10.5,20.9,9.9,20.2,9.9z
	 M11.7,14.5H13v1.3h-1.3V14.5z M17,14.5h1.3v1.3H17V14.5z M14.3,14.5h1.3v1.3h-1.3V14.5z"/>
</svg>
