<?xml version="1.0" encoding="utf-8"?>
<!-- Generator: Adobe Illustrator 26.0.3, SVG Export Plug-In . SVG Version: 6.00 Build 0)  -->
<svg version="1.1" id="Layer_1" xmlns="http://www.w3.org/2000/svg" xmlns:xlink="http://www.w3.org/1999/xlink" x="0px" y="0px"
	 viewBox="0 0 160 60" style="enable-background:new 0 0 160 60;" xml:space="preserve">
<style type="text/css">
	.st0{fill:#15386F;}
	.st1{display:none;fill:#15386F;}
	.st2{fill:url(#SVGID_1_);}
	.st3{fill:url(#SVGID_00000125590628019036924930000000608829754613535411_);}
	.st4{fill:url(#SVGID_00000010296501541615238850000000045829191968802210_);}
	.st5{opacity:0.6;fill:#00642C;enable-background:new    ;}
	.st6{opacity:0.6;fill:#36469A;enable-background:new    ;}
</style>
<g>
	<g>
		<path class="st0" d="M159.6,22.4c-0.1,1.5,0.1,3.3-0.3,5.1c-1.1,4.2-4.9,7-9.2,6.7c-1.2-0.1-2.5-0.3-3.6-0.8
			c-2.4-1.1-3.6-3.1-4.1-5.7c-0.3-1.9-0.2-3.9-0.2-5.8c0-1.2,0-2.5,0-3.7c0-0.4,0.1-0.5,0.5-0.5c0.7,0,1.4,0,2.1,0
			c0.5,0,0.6,0.1,0.6,0.6c0,2.5,0,5,0,7.5c0,0.5,0.1,0.7,0.7,0.6c0.8-0.1,1.5-0.4,2.2-0.8c1-0.6,1.2-1.6,1.2-2.7c0-1.5,0-3.1,0-4.6
			c0-0.5,0.1-0.6,0.6-0.6c0.7,0,1.4,0,2.1,0c0.3,0,0.5,0,0.4,0.4c0,1.7,0.1,3.4-0.1,5c-0.2,1.9-1.1,3.2-2.8,4.1
			c-1.1,0.6-2.3,0.9-3.5,0.9c-0.4,0-0.5,0.1-0.4,0.5c0.5,1.5,2.1,2.7,4,2.9c3.8,0.5,6.8-2.4,6.8-6.4c0-2.3,0-4.6,0-6.9
			c0-0.5,0.1-0.6,0.6-0.6c0.7,0,1.4,0,2.1,0c0.4,0,0.5,0.1,0.5,0.5C159.6,19.5,159.6,20.8,159.6,22.4z"/>
		<path class="st0" d="M95.4,33.5c-2,0-4,0-6,0c-0.4,0-0.6-0.1-0.5-0.5c0-0.6,0-1.1,0-1.6c0-0.4,0.1-0.5,0.5-0.5c2.4,0,4.8,0,7.2,0
			c0.5,0,0.6-0.1,0.6-0.6c0-2.1,0-4.3,0-6.4c0-0.3,0-0.7-0.1-1c-0.1-2-1.4-2.5-2.9-2.6c-1.6,0-3.3,0-4.9,0c-0.4,0-0.5-0.1-0.5-0.5
			c0-0.6,0-1.2,0-1.8c0-0.3,0-0.4,0.4-0.4c2.1,0,4.1-0.1,6.2,0.1c2.8,0.2,4.4,1.8,4.8,4.8c0.3,2.4,0.1,4.7,0.1,7.1
			c0,1.2,0,1.3,1.2,1.2c0.4,0,0.6,0.1,0.5,0.6c0,0.5,0,1,0,1.4c0.1,0.6-0.2,0.6-0.7,0.6C99.4,33.5,97.4,33.5,95.4,33.5z"/>
		<path class="st0" d="M126.4,33.5c-0.8,0-1.7,0-2.5,0c-0.5,0-0.6-0.2-0.6-0.6c0-0.5,0-1,0-1.5c0-0.4,0.1-0.5,0.5-0.5
			c1.3,0,2.6,0,3.9,0c3.9,0.2,5.2-3,5.1-5.5c0-1.1-0.2-2.1-0.8-3c-0.8-1.4-2-2.1-3.6-2.1c-1.5,0-3,0-4.6,0c-0.4,0-0.5-0.1-0.5-0.5
			c0-0.6,0-1.2,0-1.8c0-0.2,0-0.4,0.3-0.4c2.1,0.1,4.3-0.2,6.4,0.2c3.7,0.7,5.8,3.1,6,7c0.1,1.6-0.1,3.2-0.8,4.7
			c-1.2,2.7-3.5,3.9-6.4,4.1C128.1,33.5,127.2,33.5,126.4,33.5L126.4,33.5z"/>
		<path class="st0" d="M82.7,27.5c0,1.8,0,3.7,0,5.5c0,0.4-0.1,0.6-0.5,0.6c-2.2,0-4.4,0-6.7,0c-0.4,0-0.6-0.1-0.6-0.6
			c0-0.6,0-1.1,0-1.6c0-0.4,0.1-0.5,0.5-0.5c1.2,0,2.4,0,3.6,0c0.4,0,0.6-0.1,0.6-0.6c0-2.7,0-5.5,0-8.2c0-1.2-0.5-1.8-1.7-1.8
			c-0.7,0-1.4,0-2.1,0c-0.4,0-0.5-0.1-0.4-0.5c0-0.6,0-1.2,0-1.8c0-0.3,0-0.4,0.4-0.4c1.1,0,2.3-0.1,3.4,0.1
			c2.2,0.3,3.6,1.8,3.6,4.2C82.8,23.7,82.7,25.6,82.7,27.5z"/>
		<path class="st0" d="M136.6,48.5c0-1,0-2,0-3c0-0.3,0.1-0.4,0.4-0.4c1.7,0,3.3,0,5,0c2,0,3.6,1.4,4.1,3.5c0.3,1.3,0.3,2.7,0,4.1
			c-0.7,2.8-2.8,3.8-5.5,3.5c-2.4-0.2-3.9-2.1-4-4.8C136.6,50.4,136.6,49.5,136.6,48.5L136.6,48.5z M140.4,47.2
			c-1.3,0-1.3,0-1.3,1.3c0,0.1,0,0.2,0,0.3c0,1.2-0.1,2.4,0.1,3.5c0.2,1.2,1.1,2,2.1,2c1.1,0,1.9-0.6,2.2-1.9c0.3-1,0.3-2,0.1-3.1
			c-0.3-1.4-1.1-2.1-2.6-2.1C140.8,47.2,140.6,47.2,140.4,47.2z"/>
		<path class="st0" d="M117.3,26.8c0,2.9,0,5.7,0,8.6c0,0.5-0.1,0.6-0.6,0.6c-0.6,0-1.3,0-1.9,0c-0.5,0-0.6-0.1-0.6-0.6
			c0-5.2,0-10.5,0-15.7c0-0.5,0-1.1,0-1.6c0-0.3,0.1-0.4,0.4-0.4c0.7,0,1.5,0,2.2,0c0.5,0,0.5,0.1,0.5,0.6
			C117.3,21.1,117.3,23.9,117.3,26.8z"/>
		<path class="st0" d="M114.1,44.4c0-0.8,0-1.6,0-2.3c0-0.3,0.1-0.5,0.4-0.5c0.6,0,1.2,0,1.8,0c0.4,0,0.4,0.1,0.4,0.5
			c0,0.8,0,1.6,0,2.4c0,0.5,0.1,0.6,0.6,0.6c1.3,0,2.7,0,4.1,0c0.4,0,0.5,0.1,0.5,0.5c0,0.8-0.1,1.6-0.3,2.4
			c-0.8,2.4-1.5,4.8-2.3,7.2c-0.1,0.5-0.4,0.7-0.9,0.6c-0.5,0-1,0-1.4,0c-0.7,0-0.7,0-0.5-0.7c0.8-2.4,1.6-4.8,2.5-7.3
			c0.2-0.5,0.1-0.6-0.4-0.6c-1.3,0-2.7,0-4,0c-0.4,0-0.5-0.1-0.5-0.5C114.1,45.9,114.1,45.2,114.1,44.4z"/>
		<path class="st0" d="M125.2,55.8c0.9-2.7,1.8-5.3,2.7-7.9c0.2-0.7,0.2-0.7-0.5-0.7c-1.3,0-2.6,0-3.9,0c-0.4,0-0.5-0.1-0.5-0.5
			c0-1.6,0-3.1,0-4.7c0-0.4,0.1-0.5,0.5-0.5c0.6,0,1.1,0,1.7,0c0.4,0,0.5,0.1,0.5,0.5c0,0.8,0,1.6,0,2.5c0,0.4,0.1,0.5,0.5,0.5
			c1.3,0,2.7,0,4.1,0c0.5,0,0.6,0.1,0.6,0.6c0,0.8-0.1,1.6-0.4,2.4c-0.8,2.4-1.5,4.8-2.3,7.3c-0.1,0.4-0.3,0.6-0.7,0.5
			C126.7,55.7,126,55.8,125.2,55.8z"/>
		<path class="st0" d="M73.2,25.5c0,2.4,0,4.8,0,7.2c0,0.9,0.1,0.8-0.8,0.8c-0.5,0-1.1,0-1.6,0s-0.7-0.1-0.7-0.7c0-4.5,0-9,0-13.6
			c0-0.5-0.2-1.2,0.1-1.5c0.3-0.4,1-0.1,1.6-0.1c1.5,0,1.5,0,1.5,1.5C73.2,21.3,73.2,23.4,73.2,25.5z"/>
		<path class="st0" d="M122,25.5c0,2.5,0,4.9,0,7.4c0,0.5-0.1,0.6-0.6,0.6c-0.7,0-1.3,0-2,0c-0.4,0-0.5-0.1-0.5-0.5
			c0-5,0-9.9,0-14.9c0-0.4,0.2-0.5,0.5-0.5c0.7,0,1.4,0,2.1,0c0.4,0,0.5,0.1,0.5,0.6C122,20.6,122,23.1,122,25.5z"/>
		<path class="st0" d="M102.8,25.5c0-2.4,0-4.9,0-7.3c0-0.4,0.1-0.6,0.5-0.6c0.7,0,1.3,0,2,0c0.5,0,0.6,0.1,0.6,0.6
			c0,3.5,0,7,0,10.5c0,1.4,0,2.8,0,4.2c0,0.4-0.1,0.6-0.5,0.6c-0.7,0-1.4,0-2.1,0c-0.4,0-0.5-0.1-0.5-0.6
			C102.8,30.5,102.8,28,102.8,25.5z"/>
		<path class="st0" d="M104.2,55.8c-1.2,0-2.4,0-3.6,0c-0.4,0-0.5-0.1-0.5-0.5c0-0.6-0.2-1.2,0.1-1.6c0.3-0.4,1-0.1,1.6-0.1
			c0.8,0,1.7,0,2.6,0c0.4,0,0.4-0.1,0.4-0.5c0-1.3,0-2.6,0-3.9c0-1.3-0.7-2-2-2c-0.8,0-1.5,0-2.2,0c-0.3,0-0.5-0.1-0.5-0.5
			c0-0.5,0-0.9,0-1.4c0-0.2,0-0.4,0.3-0.4c1.2,0,2.5-0.1,3.7,0.1c1.7,0.2,2.7,1.3,3,3c0.2,1.3,0.1,2.7,0.1,4c0,0.3,0,0.6,0,0.9
			c0,0.4,0.1,0.6,0.5,0.5c0.5-0.1,0.6,0.2,0.6,0.6c0,1.6,0,1.6-1.5,1.6C106,55.8,105.1,55.8,104.2,55.8z"/>
		<path class="st0" d="M86.6,52.2c0,1,0,2.1,0,3.1c0,0.4-0.1,0.5-0.5,0.5c-0.5,0-1,0-1.6,0c-0.4,0-0.5-0.1-0.5-0.5
			c0-1.7,0-3.5,0-5.2c0-0.3,0-0.5,0-0.8c-0.1-1.5-0.7-2.1-2.2-2.1c-1.2,0-2.3,0-3.4,0c-0.4,0-0.6-0.1-0.5-0.5
			c0.1-0.5-0.2-1.2,0.1-1.6c0.3-0.3,1-0.1,1.5-0.1c1,0,1.9,0,2.9,0c2.7,0,4,1.3,4.1,4C86.6,50.1,86.6,51.1,86.6,52.2L86.6,52.2z"/>
		<path class="st0" d="M93.4,51.6c0,1.4,0,2.5,0,3.7c0,0.4-0.1,0.5-0.5,0.5c-1.3,0-2.7,0-4,0c-0.3,0-0.4-0.1-0.4-0.4
			c-0.1-1.8-0.1-1.8,1.6-1.8c0.9,0,0.8,0.1,0.8-0.9c0-1.4,0-2.7,0-4.1c0-1.1-0.3-1.4-1.4-1.4c-0.7,0-0.8-0.2-0.8-0.8
			c0-1.4,0-1.4,1.4-1.4c0.3,0,0.6,0,0.9,0c1.5,0.2,2.2,1,2.4,2.5C93.5,49,93.4,50.4,93.4,51.6z"/>
		<path class="st0" d="M137.3,27.7c-0.1-0.2-0.1-0.4-0.1-0.5c0-3,0-6,0-9c0-0.5,0.2-0.6,0.6-0.6c0.7,0,1.4,0,2.1,0
			c0.3,0,0.4,0.1,0.4,0.4c0,2.6,0,5.1,0,7.7c0,0.3-0.1,0.4-0.3,0.5C139,26.8,138.1,27.2,137.3,27.7z"/>
		<path class="st0" d="M64.9,27.8c0-3.3,0-6.5,0-9.8c0-0.3,0-0.4,0.3-0.4c0.8,0,1.6,0,2.4,0c0.3,0,0.4,0.1,0.3,0.4
			c0,2.6,0,5.2,0,7.8c0,0.2-0.1,0.3-0.3,0.4C66.8,26.8,65.9,27.2,64.9,27.8z"/>
		<path class="st0" d="M84.4,27.8c0-3.3,0-6.5,0-9.7c0-0.3,0.1-0.5,0.4-0.4c0.8,0,1.5,0,2.3,0c0.4,0,0.4,0.1,0.4,0.5
			c0,2.6,0,5.1,0,7.7c0,0.2,0,0.4-0.3,0.5C86.3,26.8,85.4,27.2,84.4,27.8z"/>
		<path class="st0" d="M98.4,50.4c0,1.6,0,3.2,0,4.9c0,0.4-0.1,0.5-0.5,0.5c-0.5,0-1.1,0-1.6,0c-0.3,0-0.4-0.1-0.4-0.4
			c0-3.3,0-6.6,0-9.9c0-0.3,0.1-0.4,0.4-0.4c0,0,0,0,0.1,0c0.7,0,1.5-0.2,1.9,0.1s0.1,1.3,0.1,1.9C98.4,48.2,98.4,49.3,98.4,50.4z"
			/>
		<path class="st0" d="M134.7,50.5c0,1.6,0,3.2,0,4.8c0,0.4-0.1,0.5-0.5,0.5c-0.5,0-1,0-1.6,0c-0.4,0-0.5-0.1-0.5-0.5
			c0-3.3,0-6.5,0-9.8c0-0.4,0.1-0.5,0.4-0.5c0.7,0,1.5-0.2,1.9,0.1s0.1,1.3,0.1,1.9C134.7,48.2,134.7,49.4,134.7,50.5z"/>
		<path class="st0" d="M80.6,52.5c0,0.9,0,1.9,0,2.8c0,0.3-0.1,0.5-0.4,0.4c-0.6,0-1.1,0-1.7,0c-0.3,0-0.4-0.1-0.4-0.4
			c0-1.7,0-3.3,0-5c0-0.3,0.1-0.4,0.4-0.5c0.6-0.1,1.1-0.3,1.7-0.5c0.3-0.1,0.4,0,0.4,0.3C80.6,50.7,80.6,51.6,80.6,52.5z"/>
		<path class="st1" d="M160,38.2c-31.7,0-63.5,0-95.2,0c0,0,0,0,0-0.1C96.5,38.1,128.3,38.1,160,38.2C160,38.1,160,38.2,160,38.2z"
			/>
		<rect x="64.8" y="37.8" class="st0" width="95.2" height="0.3"/>
	</g>
	<g>
		
			<linearGradient id="SVGID_1_" gradientUnits="userSpaceOnUse" x1="31.6418" y1="1640.0033" x2="31.6418" y2="1663.2937" gradientTransform="matrix(1 0 0 1 0 -1640.0166)">
			<stop  offset="0" style="stop-color:#D5DADC;stop-opacity:0.1"/>
			<stop  offset="1" style="stop-color:#A4AFB4"/>
		</linearGradient>
		<path class="st2" d="M35.3,0.4c-1.4-0.5-2.4-0.6-4.1,0S7.3,9.9,7.3,9.9s-1.4,0.3-1.4,1.2s-0.3,1.2,2.5,2.4s20.1,9.2,20.9,9.6
			s2,0.2,3.2-0.4l23.6-11.2c0,0,3.1-1.8-0.3-3.2"/>
		
			<linearGradient id="SVGID_00000128460248421958578110000015952373752890092964_" gradientUnits="userSpaceOnUse" x1="48.2274" y1="1690.207" x2="25.7584" y2="1667.7379" gradientTransform="matrix(1 0 0 1 0 -1640.0166)">
			<stop  offset="0" style="stop-color:#D4EB73;stop-opacity:0.1"/>
			<stop  offset="1" style="stop-color:#BADE1C"/>
		</linearGradient>
		<path style="fill:url(#SVGID_00000128460248421958578110000015952373752890092964_);" d="M23.2,31.4c0,0,0,25,0,26.3
			c0,1.3,1.2,2.9,3.4,2S48.2,49.4,49.1,49c0.9-0.4,1.5-1.1,1.5-2.8s0-24.5,0-26.3s-2.1-2.7-4.1-1.7c-1.9,1-20.2,9.8-21.2,10.4
			S23.2,29.6,23.2,31.4z"/>
		
			<linearGradient id="SVGID_00000119101123156575614860000018368740236906715524_" gradientUnits="userSpaceOnUse" x1="3.2613" y1="1675.9203" x2="25.0958" y2="1654.0858" gradientTransform="matrix(1 0 0 1 0 -1640.0166)">
			<stop  offset="0" style="stop-color:#74B5E2;stop-opacity:0.1"/>
			<stop  offset="1" style="stop-color:#1C85CF"/>
		</linearGradient>
		<path style="fill:url(#SVGID_00000119101123156575614860000018368740236906715524_);" d="M28.5,18.5c0,0,0,23.9,0,25.1
			c0,1.2-1.2,2.7-3.5,1.8c-2.3-1-22.5-11.1-23.5-11.5c-1-0.5-1.5-1.2-1.5-2.8c0-1.6,0-23.3,0-25s2.2-2.4,4.2-1.4
			s21.1,10.5,22.1,11.2C27.4,16.4,28.5,16.9,28.5,18.5z"/>
		<path class="st5" d="M25,45.4c2.3,1,3.5-0.5,3.5-1.8c0-0.7,0-9.6,0-16.6c-1.7,0.9-3,1.5-3.2,1.6c-1,0.6-2.1,1-2.1,2.7
			c0,0,0,6.6,0,13.2C24.1,45,24.7,45.3,25,45.4z"/>
		<path class="st6" d="M5.9,11.1c0,0.9-0.3,1.2,2.5,2.4c2.5,1.1,16.7,7.7,20.1,9.3c0-2.5,0-4.2,0-4.2c0-1.7-1.2-2.1-2.2-2.7
			c-0.7-0.4-8.7-4.4-14.9-7.6C9,9.2,7.3,9.9,7.3,9.9S5.9,10.1,5.9,11.1z"/>
	</g>
</g>
</svg>
