<?xml version="1.0" encoding="utf-8"?>
<!-- Generator: Adobe Illustrator 25.4.1, SVG Export Plug-In . SVG Version: 6.00 Build 0)  -->
<svg version="1.1" id="Layer_1" xmlns="http://www.w3.org/2000/svg" xmlns:xlink="http://www.w3.org/1999/xlink" x="0px" y="0px"
	 viewBox="0 0 80 80" style="enable-background:new 0 0 80 80;" xml:space="preserve">
<style type="text/css">
	.st0{fill:url(#Path_88_00000064343584408291449080000017320125505440240770_);stroke:#000000;stroke-width:2;}
	.st1{fill:url(#Path_89_00000047741279648454345510000004356090980597437610_);stroke:#000000;stroke-width:2;}
</style>
<g id="Component_9_2" transform="translate(1 0.992)">
	
		<linearGradient id="Path_88_00000136410378626456156620000015833936352585047994_" gradientUnits="userSpaceOnUse" x1="-273.0247" y1="442.8435" x2="-272.2508" y2="440.9435" gradientTransform="matrix(38.1731 0 0 -49.9517 10456.6621 22139.9199)">
		<stop  offset="0" style="stop-color:#B4DCFA"/>
		<stop  offset="1" style="stop-color:#54799C"/>
	</linearGradient>
	
		<path id="Path_88" style="fill:url(#Path_88_00000136410378626456156620000015833936352585047994_);stroke:#000000;stroke-width:2;" d="
		M60.6,50c0.2,0.3,0.3,0.6,0.5,0.8c1.1,2,1,3.9-0.8,5.3c-1,0.9-1.6,2.1-1.7,3.4c-0.4,2.6-1.6,3.8-4.2,4c-3.7,0.3-7.5,0.5-11.2,0.4
		c-4.8-0.2-9.5-0.7-14.2-1.1c-0.8-0.1-1.6-0.2-2.4-0.2c-1-0.1-1.4-0.5-1.5-1.5c0-0.6,0-1.1,0-1.7c0-6.4,0-12.8,0-19.1
		c-0.1-0.8,0.4-1.6,1.2-1.7c0,0,0,0,0,0c0.9-0.2,1.7-0.9,2.1-1.8c2.2-4.8,5.8-8.3,10.1-11.3c2.4-1.6,3.8-4.2,3.7-7.1
		c0-0.6,0.1-1.2,0.2-1.8c0.2-1.3,1.2-2.4,2.6-2.5c1.7-0.2,2.7,0.2,3.4,1.6c1.5,2.8,1.6,6.1,0.2,8.9c-0.9,2-1.8,3.9-2.7,5.8
		c-1,2.2-0.5,2.9,1.9,2.9c2.7,0,5.5-0.1,8.2,0c1.1,0.1,2.3,0.3,3.3,0.6c2.3,0.5,3.8,2.8,3.3,5.1c-0.1,0.2-0.1,0.5-0.2,0.7
		c-0.8,1.9-1,3.4,0.2,5.2c0.9,1.3,0.4,2.6-0.7,3.7C61.6,49.1,61.1,49.5,60.6,50z"/>
	
		<linearGradient id="Path_89_00000049935930531938133400000007904435822630534532_" gradientUnits="userSpaceOnUse" x1="-251.3151" y1="436.5466" x2="-250.5411" y2="434.6466" gradientTransform="matrix(10.0442 0 0 -26.4244 2542.4287 11574.0146)">
		<stop  offset="0" style="stop-color:#B4DCFA"/>
		<stop  offset="1" style="stop-color:#54799C"/>
	</linearGradient>
	
		<path id="Path_89" style="fill:url(#Path_89_00000049935930531938133400000007904435822630534532_);stroke:#000000;stroke-width:2;" d="
		M24.9,49.8c0,3.8,0,7.6,0,11.4c0,1.4-0.4,1.8-1.8,1.8c-2.2,0-4.4,0-6.6,0c-1.3,0-1.7-0.3-1.7-1.6c0-7.7,0-15.4,0-23.2
		c0-1.3,0.3-1.6,1.6-1.6c2.3,0,4.6,0,6.9,0c1.1,0,1.6,0.4,1.6,1.6C24.9,42.1,24.9,46,24.9,49.8z"/>
</g>
</svg>
