<?xml version="1.0" encoding="utf-8"?>
<!-- Generator: Adobe Illustrator 25.4.1, SVG Export Plug-In . SVG Version: 6.00 Build 0)  -->
<svg version="1.1" id="Layer_1" xmlns="http://www.w3.org/2000/svg" xmlns:xlink="http://www.w3.org/1999/xlink" x="0px" y="0px"
	 viewBox="0 0 80 80" style="enable-background:new 0 0 80 80;" xml:space="preserve">
<style type="text/css">
	.st0{fill:url(#SVGID_1_);}
	.st1{fill:url(#SVGID_00000026872989121307655380000017285547441995666621_);}
	.st2{fill:url(#SVGID_00000015322053135074832250000013795932469024947364_);}
	.st3{fill:url(#SVGID_00000138536480479472986260000017715877903173160366_);}
	.st4{fill:url(#SVGID_00000088122543389146564810000009091193528369820822_);}
	.st5{fill:url(#SVGID_00000005258017450519828860000014954920975850529441_);}
	.st6{fill:url(#SVGID_00000170992011929005318630000017450673536248090756_);}
	.st7{fill:none;stroke:#000000;stroke-width:2;stroke-linecap:round;}
	.st8{fill:url(#Path_97_00000174586263574674283320000006085544762290517120_);stroke:#000000;stroke-width:2;}
</style>
<g id="Component_10_2" transform="translate(1 2.102)">
	<g id="Group_217" transform="translate(3.511 49.971) rotate(-93)">
		<g id="Path_90" transform="translate(3.174 0)">
			
				<linearGradient id="SVGID_1_" gradientUnits="userSpaceOnUse" x1="-379.7687" y1="-300.6261" x2="-381.7797" y2="-299.7951" gradientTransform="matrix(-1.7384 41.8724 33.171 2.1944 9334.3711 16569.2148)">
				<stop  offset="0" style="stop-color:#DB2C2C"/>
				<stop  offset="1" style="stop-color:#6E1616"/>
			</linearGradient>
			<path class="st0" d="M2.6,41.3c-0.6,0-1.8-0.3-2.1-2.1c-0.7-3.4,1-6.5,4.2-7.8c0.2-0.1,0.5-0.2,0.7-0.3c0.8-0.3,1.6-0.6,2.3-1
				c1.1-0.5,1.7-1.4,1.7-2.6c0-1.3-0.5-2.2-1.7-2.8c-0.2-0.1-0.5-0.2-0.7-0.3c-0.1-0.1-0.3-0.1-0.4-0.2C1.5,22.1-1.3,18.8-2,14.1
				C-2,14-2.1,14-2.1,14c0,0,0,0,0,0c0,0,0,0,0,0c0,0-0.1,0.1,0,0.3c0.5,3.8,2.5,6.7,5.8,8.8c0.9,0.5,1.8,0.9,2.8,1.4
				c0.4,0.2,0.7,0.3,1.1,0.5c1.4,0.7,1.7,1.8,1.7,2.6c0,1.1-0.6,2-1.7,2.5c-0.1,0.1-0.3,0.1-0.4,0.2c-0.1,0-0.2,0.1-0.3,0.1
				c-0.4,0.2-0.8,0.3-1.1,0.4c-1.3,0.5-2.4,0.9-3.4,1.8C2,32.8,1.6,33,1.1,33c-0.8,0-1.6-0.5-1.8-1.3c-0.4-1-1-1.7-2-2.1
				C-3.2,29.3-3.7,29-4,28.7c-0.3-0.3-0.6-0.5-0.8-0.8c-1.4-1.4-2.9-2.8-4.3-4.2c-1.5-1.5-2.7-2.1-4.1-2.1c0,0-0.1,0-0.1,0l-1,0v-1
				c0-0.1,0-0.1,0-0.2c0-0.1,0-0.3,0-0.4c0.2-3,1-6.1,2.3-9.6c0.5-1.3,0.8-2.4,0.9-3.5c0.1-1.2,0.1-2.3,0.1-3.6c0-0.5,0-1.1,0-1.6
				c0-1.5,0.9-2.3,2.4-2.3c2.2,0,4.4,0,6.6,0c2.2,0,4.4,0,6.7,0c0.7,0,1.3,0.2,1.7,0.6c0.4,0.4,0.6,1,0.6,1.7C7,4,7.7,6.1,9.1,7.8
				c2.2,2.8,4.5,5.5,6.7,8.3l1.1,1.4c1.5,1.9,2.1,4,1.8,6.2c-0.2,1.5-0.5,3-0.7,4.4c-0.2,1.1-0.4,2.3-0.5,3.4
				c-0.5,3.2-2.3,5.4-5.4,6.5c-1.8,0.7-3.7,1.4-5.4,2c-0.9,0.4-1.9,0.7-2.9,1.1C3.3,41.3,3,41.3,2.6,41.3z"/>
			<path d="M2.6,40.3c0.2,0,0.5-0.1,0.8-0.2c2.8-1,5.5-2.1,8.3-3.1c2.7-1,4.3-2.9,4.8-5.8c0.4-2.6,0.8-5.2,1.2-7.8
				c0.3-2-0.3-3.8-1.6-5.4c-2.6-3.2-5.2-6.4-7.8-9.6C6.8,6.5,6,4.2,5.9,1.7c0-0.9-0.4-1.3-1.4-1.3c-4.4,0-8.8,0-13.3,0
				c-0.9,0-1.3,0.4-1.4,1.3c0,1.8,0,3.5-0.1,5.3c-0.1,1.3-0.5,2.5-0.9,3.7c-1.1,3-2,6.1-2.2,9.3c0,0.1,0,0.3,0,0.5
				c2.1-0.1,3.6,1,5,2.4c1.7,1.7,3.4,3.3,5.1,5c0.3,0.3,0.6,0.5,0.9,0.6c1.2,0.6,2.1,1.4,2.6,2.7c0.2,0.6,1,0.9,1.4,0.5
				c1.4-1.3,3.1-1.7,4.8-2.4c0.2-0.1,0.4-0.2,0.7-0.3c0.7-0.3,1.1-0.8,1.1-1.6c0-0.8-0.4-1.3-1.1-1.7c-1.3-0.6-2.7-1.2-3.9-2
				c-3.6-2.2-5.7-5.3-6.3-9.5c-0.1-0.7,0.2-1.3,0.8-1.4c0.6-0.1,1.2,0.3,1.3,1c0.7,4.8,3.7,7.6,8,9.4c0.4,0.2,0.8,0.3,1.2,0.5
				c1.5,0.8,2.3,2,2.2,3.7c0,1.6-0.8,2.8-2.3,3.5c-1,0.5-2.1,0.9-3.1,1.3c-2.7,1.1-4.2,3.8-3.6,6.7C1.6,39.9,2,40.3,2.6,40.3
				 M2.6,42.3c-0.9,0-1.7-0.3-2.2-1c-0.4-0.5-0.7-1.1-0.9-1.9c-0.4-1.9-0.1-3.7,0.7-5.3c0-0.1,0.1-0.1,0.1-0.2c-0.9-0.2-1.7-1-2-1.9
				c-0.3-0.7-0.7-1.2-1.5-1.6c-0.6-0.3-1.1-0.6-1.5-1c-0.3-0.3-0.6-0.5-0.8-0.8c-1.4-1.4-2.9-2.8-4.3-4.2c-1.3-1.3-2.2-1.8-3.4-1.8
				c0,0-0.1,0-0.1,0c-0.5,0-1-0.2-1.4-0.6c-0.4-0.4-0.6-0.9-0.6-1.4c0-0.1,0-0.1,0-0.2c0-0.1,0-0.3,0-0.5c0.2-3.1,1-6.3,2.3-9.9
				c0.5-1.2,0.7-2.3,0.8-3.2c0.1-1.1,0.1-2.3,0.1-3.5c0-0.5,0-1.1,0-1.6c0-1,0.3-1.8,0.9-2.4c0.6-0.6,1.4-0.9,2.4-0.9
				c2.2,0,4.4,0,6.6,0c2.2,0,4.4,0,6.7,0c2,0,3.3,1.3,3.4,3.3c0.1,2.1,0.7,3.9,2,5.5c2.2,2.8,4.5,5.5,6.7,8.2l1.1,1.4
				c1.7,2.1,2.4,4.5,2,7c-0.2,1.5-0.5,3-0.7,4.4c-0.2,1.1-0.4,2.3-0.5,3.4c-0.3,1.8-0.9,3.3-2,4.6c-1,1.2-2.4,2.2-4.1,2.8
				c-1.8,0.7-3.7,1.4-5.4,2C6,41.3,5.1,41.7,4.1,42C3.6,42.2,3.1,42.3,2.6,42.3z"/>
		</g>
		<g id="Path_91" transform="translate(20.704 41.406)">
			
				<linearGradient id="SVGID_00000065074190425748850230000016824981952324348606_" gradientUnits="userSpaceOnUse" x1="-394.7784" y1="-344.0822" x2="-396.7894" y2="-343.2512" gradientTransform="matrix(-1.4522 29.8335 27.7105 1.5635 8978.0557 12320.6914)">
				<stop  offset="0" style="stop-color:#DB2C2C"/>
				<stop  offset="1" style="stop-color:#6E1616"/>
			</linearGradient>
			<path style="fill:url(#SVGID_00000065074190425748850230000016824981952324348606_);" d="M3.1,28.4c-1.5,0-3-0.3-4.3-0.9
				c-1.3-0.6-2.4-1.5-3.3-2.6c-1.9-2.3-2.8-5.4-2.3-8.4c0.2-1.2-0.1-2-0.9-2.8c-0.9-0.9-1.8-1.8-2.7-2.6c-1.1-1.1-2.2-2.2-3.3-3.2
				c-0.6-0.6-1.3-1.5-0.3-2.8c0.8-1.1,1.5-2.3,2.3-3.5c0.3-0.5,0.7-1.1,1-1.6l0.8-1.3l0.8,1.3C-8.8,0-8.8,0.1-8.7,0.2
				c0,0.1,0.1,0.2,0.1,0.2C-7.3,1.7-6,3-4.7,4.3c1.1,1.1,2.2,2.2,3.3,3.3c0.6,0.6,1.2,0.9,1.9,0.9c0.2,0,0.4,0,0.6-0.1
				c0.7-0.1,1.3-0.2,2-0.2c4.1,0,7.6,2.2,9.3,5.9c0.8,1.7,1.1,3.4,0.9,5.2l-0.2,2l-1.5-1.4c-0.3-0.3-0.6-0.6-0.9-0.9
				c-0.7-0.6-1.4-1.3-2.1-2C8,16.4,7.3,16,6.6,16c-0.7,0-1.3,0.3-1.9,0.9c-0.9,0.9-1.9,1.9-2.9,2.9c-1.1,1.1-1.1,2.5,0,3.6
				c0.5,0.5,1,1.1,1.5,1.6c0.4,0.4,0.7,0.7,1.1,1.1c0.1,0.1,0.2,0.3,0.3,0.4c0,0.1,0.1,0.1,0.1,0.2l1,1.4l-1.8,0.2
				c-0.1,0-0.2,0-0.2,0c-0.1,0-0.3,0-0.4,0C3.4,28.4,3.3,28.4,3.1,28.4z"/>
			<path d="M-9.7,0.4C-11,2.3-12,4-13.1,5.6c-0.5,0.7-0.3,1,0.2,1.5C-10.9,9.1-9,11-7,13c1.1,1,1.4,2.2,1.2,3.7
				c-1,5.9,3.4,11,9.3,10.8c0.2,0,0.3,0,0.6-0.1c-0.2-0.2-0.2-0.4-0.4-0.5C2.8,26,2,25.1,1.1,24.2c-1.5-1.5-1.5-3.5,0-5
				c1-1,1.9-2,2.9-2.9c1.6-1.6,3.7-1.6,5.3,0c1,1,2,1.9,3,2.8c0.2-1.6-0.1-3.2-0.8-4.7C9.8,10.6,5.7,8.6,1.4,9.3
				C0,9.6-1.1,9.2-2,8.3c-2.4-2.4-4.8-4.8-7.2-7.2C-9.5,0.9-9.6,0.7-9.7,0.4 M-9.7-1.6c0.7,0,1.3,0.3,1.7,0.9
				C-8-0.5-7.9-0.4-7.9-0.3c0,0,0,0.1,0.1,0.1C-6.5,1-5.2,2.3-4,3.5c1.1,1.1,2.2,2.2,3.3,3.3c0.5,0.5,0.9,0.6,1.2,0.6
				c0.1,0,0.3,0,0.4,0c0.7-0.1,1.4-0.2,2.1-0.2c4.5,0,8.4,2.5,10.2,6.4c0.8,1.9,1.2,3.8,0.9,5.7c-0.1,0.8-0.6,1.4-1.3,1.7
				c-0.7,0.3-1.5,0.1-2.1-0.4c-0.3-0.3-0.6-0.6-0.9-0.9c-0.7-0.6-1.4-1.3-2.1-2C7.6,17.4,7.1,17,6.6,17c-0.5,0-0.9,0.3-1.2,0.6
				c-0.9,0.9-1.9,1.9-2.9,2.9c-0.7,0.7-0.7,1.5,0,2.2c0.5,0.5,1,1.1,1.5,1.6c0.4,0.4,0.7,0.7,1.1,1.1c0.2,0.2,0.3,0.4,0.4,0.5
				c0,0.1,0.1,0.1,0.1,0.1c0.4,0.6,0.5,1.3,0.2,2c-0.3,0.7-0.9,1.1-1.6,1.2c-0.1,0-0.2,0-0.2,0c-0.2,0-0.3,0-0.5,0
				c-0.1,0-0.3,0-0.4,0c-3.3,0-6.3-1.4-8.4-3.9c-2.1-2.5-3-5.9-2.5-9.2c0.1-0.8,0-1.3-0.6-1.9c-0.9-0.9-1.8-1.8-2.7-2.6
				c-1.1-1.1-2.2-2.1-3.2-3.2c-0.4-0.4-0.9-1-1.1-1.8c-0.2-1.1,0.4-2,0.6-2.3c0.8-1.1,1.5-2.3,2.3-3.5c0.3-0.5,0.7-1.1,1-1.7
				C-11.1-1.3-10.4-1.6-9.7-1.6z"/>
		</g>
		<g id="Path_92" transform="translate(3.81 30.273)">
			
				<linearGradient id="SVGID_00000039103179032752891170000008828526780044521407_" gradientUnits="userSpaceOnUse" x1="-363.2244" y1="-347.5873" x2="-365.2354" y2="-346.7563" gradientTransform="matrix(-0.6729 11.1822 12.8403 0.586 4218.8154 4267.4414)">
				<stop  offset="0" style="stop-color:#DB2C2C"/>
				<stop  offset="1" style="stop-color:#6E1616"/>
			</linearGradient>
			<path style="fill:url(#SVGID_00000039103179032752891170000008828526780044521407_);" d="M-10.8,10.6l-0.3-0.1
				c-0.1,0-0.3,0-0.4-0.1c-0.2,0-0.5-0.1-0.7-0.1c-1.2-0.4-2-1.3-2.2-2.5c-0.2-1.3,0.3-2.5,1.4-3.3c2-1.4,4.1-2.9,6.5-4.6
				c0.5-0.4,1.1-0.6,1.8-0.6c1.4,0,2.7,1,3.1,2.3C-1.5,2.2-1.5,2.9-2,3.3c-2.2,2-4.6,4.2-7.1,6.4c-0.4,0.3-0.9,0.5-1.2,0.6
				c-0.1,0-0.2,0.1-0.3,0.1L-10.8,10.6z"/>
			<path d="M-10.9,9.6c0.3-0.1,0.9-0.3,1.2-0.6C-7.4,6.9-5,4.8-2.7,2.6C-2.5,2.5-2.5,2.2-2.6,2c-0.4-1.4-2.1-2.1-3.3-1.2
				c-2.2,1.5-4.3,3-6.5,4.6c-0.8,0.6-1.2,1.3-1,2.3c0.1,0.9,0.6,1.5,1.5,1.7C-11.6,9.5-11.4,9.5-10.9,9.6 M-10.9,11.6
				c-0.1,0-0.2,0-0.4,0c-0.1,0-0.2,0-0.3-0.1c-0.3,0-0.5-0.1-0.9-0.2c-1.5-0.5-2.6-1.7-2.8-3.3c-0.3-1.7,0.4-3.2,1.8-4.2
				c2-1.4,4.1-2.9,6.5-4.6c0.7-0.5,1.5-0.7,2.4-0.7c1.9,0,3.5,1.3,4,3.1c0.2,0.8,0.1,1.9-0.7,2.6c-2.2,2-4.6,4.2-7.1,6.4
				c-0.5,0.5-1.1,0.7-1.5,0.8c-0.1,0-0.1,0.1-0.2,0.1C-10.4,11.5-10.6,11.6-10.9,11.6z"/>
		</g>
		<g id="Path_93" transform="translate(7.604 34.238)">
			
				<linearGradient id="SVGID_00000124883516333157930020000003318156429458558897_" gradientUnits="userSpaceOnUse" x1="-370.5108" y1="-356.9993" x2="-372.5218" y2="-356.1683" gradientTransform="matrix(-0.5684 13.5074 10.8462 0.7079 3659.5249 5260.3174)">
				<stop  offset="0" style="stop-color:#DB2C2C"/>
				<stop  offset="1" style="stop-color:#6E1616"/>
			</linearGradient>
			<path style="fill:url(#SVGID_00000124883516333157930020000003318156429458558897_);" d="M-11.1,12.7
				C-11.1,12.7-11.1,12.7-11.1,12.7c-0.8,0-1.6-0.3-2.3-0.9c-0.7-0.6-1.1-1.4-1.1-2.3c0-0.9,0.3-1.7,0.9-2.3
				c1.8-1.8,3.8-3.6,5.6-5.4c0.7-0.7,1.5-1.4,2.2-2.1l0.5-0.5l0.6,0.3l0.2,0.1L-3.5,0l-0.3,0.8c-0.6,1.6-0.7,3.1-0.2,4.7
				C-3.9,6.1-4.2,6.7-4.5,7l-0.1,0.1c-1.3,1.5-2.7,3-4,4.5C-9.3,12.3-10.1,12.7-11.1,12.7z"/>
			<path d="M-5,0.4c-2.6,2.5-5.2,5-7.8,7.5c-0.9,0.9-0.8,2.4,0.1,3.2c1,0.9,2.4,0.8,3.3-0.1C-8,9.4-6.6,7.9-5.3,6.3
				C-5.1,6.2-5,5.9-5.1,5.8C-5.6,4-5.5,2.2-4.8,0.5L-5,0.4 M-5-1.6c0.3,0,0.6,0.1,0.9,0.2l0.2,0.1C-3-0.8-2.6,0.3-2.9,1.2
				c-0.5,1.4-0.6,2.7-0.2,4c0.3,0.9-0.2,1.9-0.6,2.4l-0.1,0.1c-1.3,1.5-2.7,3-4.1,4.5c-0.8,0.9-1.9,1.4-3.1,1.4
				c-1.1,0-2.1-0.4-2.9-1.1c-0.9-0.8-1.4-1.9-1.4-3.1c0-1.2,0.4-2.2,1.2-3c1.9-1.8,3.8-3.6,5.6-5.4C-7.8,0.4-7.1-0.3-6.3-1
				C-6-1.4-5.5-1.6-5-1.6z"/>
		</g>
		<g id="Path_94" transform="translate(1.117 26.375)">
			
				<linearGradient id="SVGID_00000149340059757200755320000017742443647129116317_" gradientUnits="userSpaceOnUse" x1="-353.9541" y1="-348.2745" x2="-355.9651" y2="-347.4435" gradientTransform="matrix(-0.5744 8.6974 10.9598 0.4558 3611.6873 3238.6892)">
				<stop  offset="0" style="stop-color:#DB2C2C"/>
				<stop  offset="1" style="stop-color:#6E1616"/>
			</linearGradient>
			<path style="fill:url(#SVGID_00000149340059757200755320000017742443647129116317_);" d="M-11,8.1l-0.2,0
				c-1.5-0.2-2.7-1.1-3.1-2.5c-0.4-1.6,0.3-3.2,1.7-3.9c1.9-0.9,3.4-1.5,4.9-2.1c0.4-0.1,0.7-0.2,1.1-0.2c1.4,0,2.7,1,3.1,2.5
				c0.3,1.1-0.3,1.7-0.8,2C-5,4.4-5.8,5-6.5,5.5c-0.9,0.6-1.8,1.3-2.7,1.9c-0.4,0.3-0.8,0.4-1.1,0.5c-0.1,0-0.3,0.1-0.4,0.1L-11,8.1
				z"/>
			<path d="M-11.1,7.1c0.5-0.2,0.9-0.3,1.3-0.6c1.7-1.1,3.3-2.3,5-3.4c0.4-0.3,0.5-0.5,0.4-1c-0.3-1.3-1.6-2.1-2.9-1.6
				c-1.6,0.6-3.2,1.3-4.8,2.1c-1,0.4-1.4,1.7-1.2,2.7C-13.1,6.3-12.2,7-11.1,7.1 M-11.1,9.1c-0.1,0-0.1,0-0.2,0
				c-1.9-0.2-3.5-1.5-3.9-3.2C-15.5,4.9-15.4,3.9-15,3c0.4-1,1.1-1.8,2-2.2c1.9-0.9,3.5-1.5,5-2.1c0.5-0.2,1-0.3,1.5-0.3
				c1.9,0,3.5,1.3,4,3.2C-2.2,2.9-2.6,4-3.7,4.7C-4.4,5.2-5.2,5.8-6,6.3c-0.9,0.6-1.8,1.3-2.7,1.9c-0.5,0.3-1,0.5-1.4,0.6
				c-0.1,0-0.2,0.1-0.3,0.1C-10.6,9-10.9,9.1-11.1,9.1z"/>
		</g>
		<g id="Path_95" transform="translate(13.402 41.731)">
			
				<linearGradient id="SVGID_00000000918493530990859720000000637230316757255341_" gradientUnits="userSpaceOnUse" x1="-368.1937" y1="-366.1804" x2="-370.2047" y2="-365.3493" gradientTransform="matrix(-0.5355 9.3808 10.2179 0.4916 3541.5396 3635.3621)">
				<stop  offset="0" style="stop-color:#DB2C2C"/>
				<stop  offset="1" style="stop-color:#6E1616"/>
			</linearGradient>
			<path style="fill:url(#SVGID_00000000918493530990859720000000637230316757255341_);" d="M-11.1,8.6C-11.1,8.6-11.1,8.6-11.1,8.6
				c-0.4,0-0.7-0.1-1.1-0.2c-1-0.3-1.8-1.1-2.1-2.1c-0.3-1,0-2,0.7-2.8c0.4-0.4,0.7-0.8,1.1-1.2c0.6-0.7,1.3-1.4,1.9-2.1
				C-10.4,0-10-0.5-9.2-0.5c0.2,0,0.4,0,0.7,0.1c0.4,0.1,0.9,0.1,1.3,0.1c0.2,0,0.4,0,0.6,0l0,0c0.1,0,0.3-0.1,0.4-0.1
				c0.1,0,0.3-0.1,0.4-0.1l0.6-0.2l0.4,0.5l0.1,0.1l0.5,0.6l-0.4,0.6C-5,1.7-5.3,2.3-5.7,2.9c-0.9,1.5-1.9,3-2.9,4.5
				C-9.2,8.2-10.1,8.6-11.1,8.6z"/>
			<path d="M-5.5,0.4c-0.4,0.1-0.7,0.3-1.1,0.3c-0.7,0-1.5,0-2.2-0.2c-0.5-0.1-0.7-0.1-1,0.3c-1,1.1-2,2.3-3,3.4
				c-1,1.1-0.5,2.9,1,3.3C-11,7.8-10,7.6-9.5,6.8c1.4-2.1,2.7-4.2,4.1-6.3L-5.5,0.4 M-5.5-1.6c0.6,0,1.1,0.2,1.5,0.7l0.1,0.1
				c0.6,0.7,0.7,1.7,0.2,2.4c-0.4,0.6-0.8,1.2-1.1,1.8c-1,1.5-1.9,3-3,4.6C-8.6,9-9.7,9.6-11.1,9.6c-0.4,0-0.9-0.1-1.4-0.2
				C-13.8,9-14.9,8-15.2,6.7c-0.4-1.3,0-2.7,0.9-3.8c0.4-0.4,0.7-0.8,1.1-1.2c0.6-0.7,1.3-1.4,1.9-2.1c0.6-0.7,1.3-1,2.1-1
				c0.3,0,0.6,0,0.9,0.1C-8-1.3-7.6-1.3-7.2-1.3c0.2,0,0.3,0,0.5,0c0,0,0.1,0,0.2-0.1c0.1-0.1,0.3-0.1,0.5-0.2
				C-6-1.6-5.7-1.6-5.5-1.6z"/>
		</g>
		<g id="Path_96" transform="translate(0 22.43)">
			
				<linearGradient id="SVGID_00000059990868823232727050000017203750577016019335_" gradientUnits="userSpaceOnUse" x1="-345.2107" y1="-350.8233" x2="-347.2217" y2="-349.9923" gradientTransform="matrix(-0.4771 6.9121 9.1042 0.3622 3024.8286 2513.6658)">
				<stop  offset="0" style="stop-color:#DB2C2C"/>
				<stop  offset="1" style="stop-color:#6E1616"/>
			</linearGradient>
			<path style="fill:url(#SVGID_00000059990868823232727050000017203750577016019335_);" d="M-13.5,6.3L-14,5.5
				c-0.9-1.8-0.2-4.3,1.7-5.4c0.7-0.5,1.6-0.7,2.4-0.7c1.5,0,3,0.8,4,2.3l0.7,1l-1.1,0.5l-5.3,2.4l-1,0.4L-13.5,6.3z"/>
			<path d="M-13.1,5c2.1-0.9,4.2-1.9,6.3-2.8c-1.3-1.8-3.3-2.4-5-1.3C-13.2,1.8-13.8,3.7-13.1,5 M-13.1,7c-0.7,0-1.4-0.4-1.8-1.1
				c-0.6-1.1-0.7-2.5-0.3-3.7c0.4-1.2,1.2-2.3,2.3-3c0.9-0.6,1.9-0.8,2.9-0.8c1.9,0,3.6,1,4.8,2.7c0.3,0.5,0.4,1.1,0.3,1.7
				C-5,3.4-5.4,3.8-6,4.1l-6.3,2.8C-12.6,7-12.8,7-13.1,7z"/>
		</g>
	</g>
	<line id="Line_28" class="st7" x1="71" y1="45.3" x2="76.9" y2="48.2"/>
	<line id="Line_30" class="st7" x1="70.5" y1="38.2" x2="76.9" y2="36.5"/>
	<line id="Line_29" class="st7" x1="64.5" y1="48.8" x2="68" y2="57.8"/>
	
		<linearGradient id="Path_97_00000101801308792547590170000004421963882592803004_" gradientUnits="userSpaceOnUse" x1="-240.0832" y1="434.3798" x2="-239.3092" y2="432.4798" gradientTransform="matrix(10.0442 0 0 -26.4244 2415.8098 11513.6934)">
		<stop  offset="0" style="stop-color:#DB2C2C"/>
		<stop  offset="1" style="stop-color:#6E1616"/>
	</linearGradient>
	
		<path id="Path_97" style="fill:url(#Path_97_00000101801308792547590170000004421963882592803004_);stroke:#000000;stroke-width:2;" d="
		M11.1,46.8c0,3.8,0,7.6,0,11.4c0,1.4-0.4,1.8-1.8,1.8c-2.2,0-4.4,0-6.6,0c-1.3,0-1.7-0.3-1.7-1.6c0-7.7,0-15.4,0-23.2
		c0-1.3,0.3-1.6,1.6-1.6c2.3,0,4.6,0,6.9,0c1.1,0,1.6,0.4,1.6,1.6C11.1,39,11.1,42.9,11.1,46.8z"/>
</g>
</svg>
