<?xml version="1.0" encoding="utf-8"?>
<!-- Generator: Adobe Illustrator 26.0.1, SVG Export Plug-In . SVG Version: 6.00 Build 0)  -->
<svg version="1.1" id="Layer_1" xmlns="http://www.w3.org/2000/svg" xmlns:xlink="http://www.w3.org/1999/xlink" x="0px" y="0px"
	 viewBox="0 0 81 80" style="enable-background:new 0 0 81 80;" xml:space="preserve">
<style type="text/css">
	.st0{fill:url(#time_icon_bl_00000030449419602718256380000009349103306379485886_);}
</style>
<linearGradient id="time_icon_bl_00000148633398938742123950000011389451510525089666_" gradientUnits="userSpaceOnUse" x1="-907.1544" y1="574.7637" x2="-907.1544" y2="573.7637" gradientTransform="matrix(81.0002 0 0 -80.0151 73520.2266 45989.7852)">
	<stop  offset="0" style="stop-color:#7DA670"/>
	<stop  offset="1" style="stop-color:#B4E66E"/>
</linearGradient>
<path id="time_icon_bl" style="fill:url(#time_icon_bl_00000148633398938742123950000011389451510525089666_);" d="M33.6,80
	c-0.4-0.1-0.9-0.2-1.3-0.3c-17.2-3.6-30.1-17.8-32-35.3c-0.1-0.9-0.2-1.8-0.2-2.7v-3.2c0.1-0.9,0.1-1.7,0.2-2.6
	c0.5-5.3,2.1-10.4,4.7-15C9,13.6,15.3,7.6,23,4c12.8-6.1,27.8-5.1,39.6,2.6c0.1,0.1,0.2,0.1,0.3,0.2c0,0,0.1,0,0.1,0
	c0.1-0.1,0.2-0.2,0.3-0.3c0.7-1,1.5-2.1,2.2-3.1c0.1-0.2,0.3-0.4,0.5-0.5c0.3-0.3,0.8-0.4,1.1-0.1c0.1,0.1,0.2,0.2,0.2,0.3
	c0.1,0.2,0.2,0.4,0.2,0.6c1,3.4,1.9,6.8,2.9,10.2c0.4,0.9,0,2-0.9,2.4c-0.3,0.1-0.6,0.2-0.9,0.2c-3.5,0.3-7,0.6-10.6,1
	c-0.3,0-0.7,0-1,0c-0.4,0-0.7-0.4-0.6-0.8c0-0.1,0-0.2,0.1-0.2c0.1-0.3,0.2-0.5,0.4-0.7c0.7-1.1,1.5-2.1,2.2-3.1
	c0.1-0.1,0.1-0.2,0.3-0.4c-0.7-0.4-1.5-0.9-2.2-1.3c-3.7-2.1-7.9-3.5-12.1-4C26.5,4.2,9.5,17.1,6.9,35.5C5,49,11.3,62.2,23,69.2
	c3.5,2.1,7.4,3.6,11.4,4.3c1.8,0.2,3,1.9,2.8,3.7c-0.2,1.4-1.2,2.5-2.6,2.8c-0.1,0-0.2,0.1-0.3,0.1L33.6,80z M44,77
	c-0.1-1.6,0.9-3.1,2.5-3.4c0.8-0.2,1.5-0.3,2.3-0.5c1.7-0.4,3.4,0.7,3.8,2.4c0.4,1.7-0.5,3.4-2.2,3.9c-0.9,0.3-1.8,0.4-2.7,0.6
	c-0.1,0-0.2,0-0.4,0C45.6,80,44.2,78.7,44,77z M56.3,74c-0.9-1.5-0.4-3.4,1.1-4.3c0.7-0.4,1.4-0.9,2.1-1.3c0.5-0.2,1.1-0.4,1.6-0.6
	c0,0,0,0.1,0,0.1c1.4,0,2.6,0.9,3.1,2.2c0.5,1.3,0,2.8-1.1,3.6c-0.8,0.5-1.6,1-2.4,1.5c-0.5,0.2-1,0.4-1.5,0.4
	C58,75.6,56.9,75,56.3,74L56.3,74z M67.6,67.3c-1.2-0.5-2-1.7-2-3c0-0.7,0.2-1.4,0.7-2c0.5-0.6,1-1.3,1.5-1.9c1.1-1.3,3-1.5,4.4-0.5
	c1.4,1,1.8,2.9,0.8,4.3c-0.6,0.8-1.2,1.6-1.9,2.4c-0.6,0.6-1.4,1-2.2,0.9C68.4,67.5,68,67.4,67.6,67.3L67.6,67.3z M74.2,56.5
	c-1.7-0.6-2.5-2.4-1.9-4.1c0.2-0.7,0.5-1.5,0.8-2.2c0.6-1.5,2.1-2.3,3.6-2c1.5,0.3,2.7,1.6,2.7,3.2c0,0.3-0.1,0.7-0.2,1
	c-0.2,0.8-0.5,1.5-0.8,2.2c-0.5,1.3-1.7,2.1-3,2.1C74.9,56.7,74.5,56.6,74.2,56.5L74.2,56.5z M59.8,55.1c-1.7-0.9-3.3-1.7-5-2.6
	c-6.2-3.2-12.3-6.3-18.5-9.5c-0.3-0.1-0.4-0.3-0.4-0.6c0-4.3,0-8.6,0-12.9c0-4.3,0-8.5,0-12.8c0-1.4,1.1-2.6,2.6-2.7
	c1.3,0,2.5,0.9,2.6,2.2c0,0.3,0,0.5,0,0.8c0,7.3,0,14.7,0,22c0,0.3,0.2,0.6,0.5,0.7c6.8,3.5,13.7,7,20.5,10.5c1.3,0.5,2,2,1.5,3.3
	c-0.4,1-1.3,1.7-2.4,1.7C60.6,55.5,60.2,55.3,59.8,55.1L59.8,55.1z M77.4,44.3c-1.6-0.2-2.9-1.6-2.9-3.2c0-0.8,0-1.5,0-2.3
	c0-1.8,1.4-3.2,3.2-3.3c1.6,0,3,1.2,3.2,2.7c0,0.1,0,0.2,0.1,0.2v3c0,0.1-0.1,0.1-0.1,0.2c-0.3,1.5-1.7,2.6-3.2,2.6
	C77.6,44.3,77.5,44.3,77.4,44.3L77.4,44.3z M72.8,29.9c-0.3-0.8-0.6-1.6-0.9-2.4c-0.5-1.7,0.4-3.5,2.2-4.1c0.4-0.1,0.8-0.2,1.2-0.1
	c1.2,0.1,2.2,0.8,2.7,1.9c0.4,0.8,0.7,1.7,1,2.6c0.5,1.7-0.4,3.4-2.1,3.9C75.3,32.3,73.5,31.5,72.8,29.9L72.8,29.9z"/>
</svg>
