<?xml version="1.0" encoding="utf-8"?>
<!-- Generator: Adobe Illustrator 25.4.1, SVG Export Plug-In . SVG Version: 6.00 Build 0)  -->
<svg version="1.1" id="Layer_1" xmlns="http://www.w3.org/2000/svg" xmlns:xlink="http://www.w3.org/1999/xlink" x="0px" y="0px"
	 viewBox="0 0 320 70" style="enable-background:new 0 0 320 70;" xml:space="preserve">
<style type="text/css">
	.st0{fill:#21456B;}
	.st1{fill:#000001;}
	.st2{fill:url(#Path_66_00000088852258045178911480000010242657821096774282_);}
	.st3{fill:none;}
	.st4{fill:url(#Path_69_00000010281043103080944010000011035037632841438637_);}
</style>
<path id="Path_52" class="st0" d="M96.2,38.2c-1-0.5-2-0.9-3-1.2c-0.3-0.1-0.3-0.2,0-0.3c1-0.3,1.9-0.6,2.8-1.1
	c0.9-0.6,1.6-1.4,2.1-2.4c0.5-1,0.8-2.2,0.7-3.3c0-1.6-0.3-3.2-1.1-4.7c-0.8-1.3-1.9-2.3-3.3-3c-1.5-0.5-3.1-0.8-4.7-1
	c-0.3,0-0.8-0.1-1.1-0.1H76.8c-0.3,0-0.6,0.3-0.6,0.6v30.7c0,0.3,0.3,0.6,0.6,0.6H89c0.3,0,0.8,0,1.1-0.1c1.6-0.1,3.2-0.5,4.7-1
	c1.4-0.6,2.6-1.7,3.3-3c0.6-1.3,0.9-2.7,1.1-4.1c0-0.3,0.1-0.6,0.1-0.6c0,0,0-0.3-0.1-0.6c-0.1-1.1-0.3-2.1-0.7-3.1
	C98,39.8,97.2,38.8,96.2,38.2z M82.2,27.7c0-0.3,0.3-0.6,0.6-0.6h5.6c0.4,0,0.8,0,1.1,0.1c0.8,0.1,1.6,0.4,2.3,0.8
	c0.7,0.6,1.1,1.5,1,2.4c0.1,1-0.3,2-1,2.7c-0.7,0.5-1.5,0.8-2.3,0.9c-0.4,0-0.8,0.1-1.1,0.1h-5.6c-0.3,0-0.6-0.3-0.6-0.6L82.2,27.7z
	 M93.2,43.6c0,0,0,0.3-0.1,0.6c-0.1,0.8-0.5,1.6-1,2.2c-0.8,0.5-1.7,0.8-2.6,0.9c-0.4,0-0.8,0.1-1.1,0.1h-5.6
	c-0.3,0-0.6-0.3-0.6-0.6v-6.5c0-0.3,0.3-0.6,0.6-0.6h5.6c0.3,0,0.8,0,1.1,0.1c0.6,0.1,1.2,0.2,1.7,0.4c0.6,0.3,1.1,0.7,1.5,1.3
	c0.2,0.5,0.4,1,0.4,1.5C93.2,43.4,93.2,43.6,93.2,43.6L93.2,43.6z"/>
<path id="Path_53" class="st0" d="M120.8,41.3c0,0.4,0,0.8-0.1,1.1c0,0-0.4,2.7-1.4,3.7c-1.1,1.1-2.6,1.6-4.1,1.5
	c-1.5,0.1-3-0.5-4.1-1.5c-1-1-1.4-3.7-1.4-3.7c-0.1-0.4-0.1-0.8-0.1-1.1V21.9c0-0.3-0.3-0.6-0.6-0.6h-4.8c-0.3,0-0.6,0.3-0.6,0.6
	v19.2c0,0.3,0,0.8,0.1,1.1c0,0,0.4,4.1,1.3,5.8c0.9,1.7,2.2,3.2,3.9,4.1c1.9,1,4.1,1.5,6.2,1.4c2.2,0.1,4.3-0.4,6.3-1.4
	c1.7-0.9,3.1-2.3,4-4.1c0.9-1.8,1.3-5.8,1.3-5.8c0-0.3,0.1-0.8,0.1-1.1V21.9c0-0.3-0.3-0.6-0.6-0.6h-4.8c-0.3,0-0.6,0.3-0.6,0.6
	L120.8,41.3z"/>
<path id="Rectangle_53" class="st0" d="M133.6,21.4h4.2c0.5,0,1,0.4,1,1v29.9c0,0.6-0.4,1-1,1h-4.2c-0.5,0-1-0.4-1-1V22.4
	C132.7,21.8,133.1,21.4,133.6,21.4z"/>
<path id="Path_54" class="st0" d="M152,21.9c0-0.3-0.3-0.6-0.6-0.6h-4.8c-0.3,0-0.6,0.3-0.6,0.6v30.7c0,0.3,0.3,0.6,0.6,0.6h20
	c0.3,0,0.6-0.3,0.6-0.6V48c0-0.3-0.3-0.6-0.6-0.6h-14.1c-0.3,0-0.6-0.3-0.6-0.6L152,21.9z"/>
<path id="Path_55" class="st0" d="M188.5,22.7c-1.9-0.9-6.2-1.3-6.2-1.3c-0.3,0-0.8-0.1-1.1-0.1h-9.3c-0.3,0-0.6,0.3-0.6,0.6v30.7
	c0,0.3,0.3,0.6,0.6,0.6h9.3c0.3,0,0.8,0,1.1-0.1c0,0,4.4-0.4,6.3-1.4c1.8-0.9,3.2-2.3,4.2-4c0.7-1.7,1.2-3.6,1.3-5.4
	c0-0.3,0.1-0.8,0.1-1.1v-7.9c0-0.3,0-0.8-0.1-1.1c0,0-0.4-3.9-1.4-5.6C191.8,24.9,190.3,23.5,188.5,22.7z M188.1,41.4
	c0,0.4,0,0.8-0.1,1.1c0,0-0.4,2.5-1.5,3.5c-1.1,0.9-4,1.3-4,1.3c-0.4,0-0.8,0.1-1.1,0.1h-3.5c-0.3,0-0.6-0.3-0.6-0.6V27.7
	c0-0.3,0.3-0.6,0.6-0.6h3.5c0.4,0,0.8,0,1.1,0.1c0,0,2.9,0.4,4,1.3c1.1,0.9,1.5,3.5,1.5,3.5c0.1,0.4,0.1,0.8,0.1,1.1V41.4z"/>
<path id="Path_56" class="st0" d="M202.6,21.4h-2.2c-0.3,0-0.6,0.3-0.6,0.6v30.7c0,0.3,0.3,0.6,0.6,0.6h20c0.3,0,0.6-0.3,0.6-0.6V48
	c0-0.3-0.3-0.6-0.6-0.6h-14.1c-0.3,0-0.6-0.3-0.6-0.6v-6c0-0.3,0.3-0.6,0.6-0.6h11.7c0.3,0,0.6-0.3,0.6-0.6v-4.6
	c0-0.3-0.3-0.6-0.6-0.6h-11.7c-0.3,0-0.6-0.3-0.6-0.6v-6.2c0-0.3,0.3-0.6,0.6-0.6h14.1c0.3,0,0.6-0.3,0.6-0.6V22
	c0-0.3-0.3-0.6-0.6-0.6L202.6,21.4L202.6,21.4z"/>
<path id="Path_57" class="st0" d="M235.9,21.4c-0.3,0-0.6,0.2-0.8,0.5l-11.7,30.8c-0.1,0.2,0,0.4,0.2,0.5c0.1,0,0.1,0,0.2,0h5.3
	c0.3,0,0.6-0.2,0.8-0.5l1.4-4c0.1-0.3,0.4-0.5,0.8-0.5h10.4c0.3,0,0.6,0.2,0.8,0.5l1.4,4c0.1,0.3,0.4,0.5,0.8,0.5h5.3
	c0.2,0,0.4-0.1,0.4-0.3c0-0.1,0-0.1,0-0.2l-11.7-30.8c-0.1-0.3-0.4-0.5-0.8-0.5H235.9z M234,42.4c-0.2,0-0.4-0.1-0.4-0.3
	c0-0.1,0-0.1,0-0.2L237,32c0.1-0.3,0.3-0.3,0.4,0l3.4,9.8c0.1,0.2,0,0.4-0.2,0.5c-0.1,0-0.1,0-0.2,0H234z"/>
<path id="Path_58" class="st0" d="M261.4,47.5c-0.3,0-0.6-0.3-0.6-0.6v-25c0-0.3-0.3-0.6-0.6-0.6h-4.8c-0.3,0-0.6,0.3-0.6,0.6v30.7
	c0,0.3,0.3,0.6,0.6,0.6h20c0.3,0,0.6-0.3,0.6-0.6V48c0-0.3-0.3-0.6-0.6-0.6L261.4,47.5z"/>
<path id="Path_60" class="st0" d="M315.7,37.7l-1.9,7.7l-1.9-7.7h-4.3v15.1h2.8V41l2.1,7.8h2.6l2.1-7.8v11.7h2.8V37.7H315.7z
	 M300.1,50.8c-1.1,0-1.5-0.8-1.5-2.8v-5.6c0-2,0.4-2.8,1.5-2.8c1.1,0,1.5,0.8,1.5,2.8V48C301.6,50.1,301.2,50.8,300.1,50.8
	 M300.1,53c3.1,0,4.4-1.6,4.4-5.3v-4.8c0-3.8-1.3-5.3-4.4-5.3c-3.1,0-4.4,1.6-4.4,5.3v4.8C295.7,51.4,297,53,300.1,53 M288.7,53
	c3.1,0,4.3-1.5,4.3-5.9h-2.9c0,2.8-0.3,3.8-1.4,3.8c-1.1,0-1.5-0.8-1.5-2.8v-5.5c0-2.1,0.3-2.8,1.5-2.8c1.1,0,1.4,0.9,1.4,3.8h2.9
	c0-4.4-1.2-5.9-4.3-5.9s-4.4,1.5-4.4,5.3v4.8C284.4,51.4,285.6,53,288.7,53 M279.1,52.8h3v-3.1h-3V52.8z"/>
<path id="Path_61" class="st0" d="M27.8,55.6c0-3.7,0-7.4,0-11.1c0.1-0.6-0.3-1.1-0.8-1.3c-3.9-1.8-7.9-3.7-11.8-5.6
	c-0.2-0.1-0.4-0.1-0.6,0c-3.1,1.5-6.1,2.9-9.2,4.3c-0.9,0.5-2,0.6-3,0.3c-0.5-0.1-0.5,0-0.5,0.4c0,4.4,0,8.9,0,13.3
	c-0.1,0.6,0.3,1.1,0.8,1.3c3.1,1.4,6.2,2.9,9.3,4.4c4.4,2.1,8.7,4.1,13.1,6.2c0.6,0.3,1.2,0.3,1.8,0.1c0.5-0.1,0.9-0.6,0.8-1.1
	c0,0,0,0,0,0C27.8,63.1,27.8,59.3,27.8,55.6 M1.9,28v11.3c-0.1,0.5,0.3,1,0.7,1.1c0.7,0.2,1.4,0.2,2-0.2c7.5-3.5,15-7,22.4-10.5
	c0.5-0.2,0.8-0.6,0.7-1.1c0-7.4,0-14.9,0-22.3c0-0.8-0.3-1.2-1.1-1.3c-0.7-0.1-1.4,0.1-2,0.4C17.4,8.7,10,12.2,2.6,15.6
	c-0.5,0.2-0.7,0.6-0.7,1.1C1.9,20.5,1.9,24.2,1.9,28 M0,15.6c0.2,0,0.2-0.1,0.2-0.2c0.3-0.7,0.9-1.2,1.5-1.5
	c7.2-3.4,14.4-6.7,21.5-10.1c0.7-0.4,1.5-0.7,2.3-0.9c1.4-0.3,2.8,0.2,3.7,1.3c0.3,0.4,0.5,1,0.5,1.5c0,7.7,0,15.4,0,23.1
	c0,1-0.5,1.9-1.4,2.3c-1.4,0.7-2.9,1.4-4.3,2.1c-2.2,1-4.4,2.1-6.6,3.1c-0.1,0-0.1,0.1-0.2,0.1c0.7,0.3,1.4,0.6,2,1
	c2.9,1.4,5.8,2.7,8.8,4.1c0.9,0.3,1.5,1.1,1.7,2c0,0.2,0.1,0.4,0,0.7c0,7.5,0,15.1,0,22.6c0,1.5-1.1,2.9-2.6,3.1
	c-0.9,0.2-1.9,0.1-2.7-0.3C17,66.1,9.5,62.5,2,59c-0.8-0.3-1.4-0.9-1.8-1.7c0-0.1-0.1-0.2-0.2-0.1V57l0.1,0L0,56.9v-41l0.1-0.1
	l-0.1,0L0,15.6z"/>
<path id="Path_62" class="st1" d="M0,56.9L0,56.9L0,56.9L0,56.9z"/>
<path id="Path_63" class="st1" d="M0,15.8L0,15.8L0,15.8L0,15.8z"/>
<path id="Path_64" class="st0" d="M61.3,58.4L38.8,47.8c0,0.1,0,0.2,0,0.3c0,6.3,0,12.6,0,18.8c0,0.4,0.2,0.7,0.6,0.8
	c0.7,0.3,1.5,0.3,2.1-0.1c5.6-2.7,11.3-5.3,16.9-8C59.4,59.4,60.3,58.9,61.3,58.4 M38.8,25.5c0,6.5,0,12.9,0,19.4
	c0,0.5,0.3,1.1,0.8,1.2c1.5,0.7,3,1.4,4.5,2.1C50,51,56,53.8,62,56.6c0.4,0.2,0.9,0.3,1.4,0.3c1-0.1,1.4-0.5,1.4-1.5
	c0-12.8,0-25.7,0-38.5c0.1-0.6-0.3-1.2-0.9-1.4c-4-1.9-8-3.8-12.1-5.7C48.3,8.3,44.9,6.6,41.4,5c-0.6-0.3-1.3-0.3-2-0.1
	c-0.4,0.1-0.7,0.6-0.7,1C38.8,12.5,38.8,19,38.8,25.5 M36.9,36.4V6.1c-0.1-1.7,1.2-3.2,3-3.3c0.1,0,0.2,0,0.2,0
	c0.8,0,1.6,0.2,2.4,0.6c7.4,3.5,14.7,6.9,22.1,10.4c0.6,0.2,1.2,0.7,1.6,1.2c0.3,0.4,0.4,0.9,0.4,1.4c0,13.4,0,26.7,0,40.1
	c0,1.1-0.7,2.1-1.8,2.5c-2.8,1.3-5.7,2.7-8.5,4c-4.6,2.2-9.3,4.4-13.9,6.5c-1.3,0.7-2.9,0.7-4.2-0.1c-0.9-0.5-1.4-1.4-1.4-2.4
	c0-4,0-7.9,0-11.9V36.4z"/>
<path id="Path_65" class="st0" d="M28.2,55.6v11.5c0.1,0.5-0.3,1-0.8,1.1c0,0,0,0,0,0c-0.6,0.2-1.3,0.1-1.9-0.1
	c-4.5-2.1-8.9-4.2-13.4-6.3c-3.2-1.5-6.4-3-9.5-4.5C2,57.1,1.6,56.5,1.7,56c0-4.5,0-9.1,0-13.6c0-0.4,0-0.5,0.5-0.4
	c1,0.3,2.1,0.2,3-0.3c3.1-1.5,6.3-3,9.4-4.4c0.2-0.1,0.4-0.1,0.6,0c4,1.9,8,3.8,12.1,5.7c0.6,0.2,0.9,0.8,0.9,1.4
	C28.2,48,28.2,51.8,28.2,55.6"/>
<linearGradient id="Path_66_00000043454039263357693770000003803668196908361125_" gradientUnits="userSpaceOnUse" x1="17.0648" y1="244.6703" x2="18.5252" y2="243.9376" gradientTransform="matrix(26.1863 0 0 -52.1719 -414.2371 12776.6484)">
	<stop  offset="0" style="stop-color:#B4DCFA"/>
	<stop  offset="0.167" style="stop-color:#B4DCFA"/>
	<stop  offset="0.31" style="stop-color:#A4CCEB"/>
	<stop  offset="0.589" style="stop-color:#7CA3C4"/>
	<stop  offset="0.841" style="stop-color:#54799C"/>
</linearGradient>
<path id="Path_66" style="fill:url(#Path_66_00000043454039263357693770000003803668196908361125_);" d="M38.8,25.5
	c0-6.5,0-13,0-19.5c0-0.5,0.2-0.9,0.7-1c0.6-0.3,1.4-0.2,2,0.1c3.4,1.6,6.9,3.2,10.3,4.9c4,1.9,8,3.8,12.1,5.7
	c0.6,0.2,1,0.8,0.9,1.4c0,12.8,0,25.7,0,38.5c0,1-0.4,1.4-1.4,1.5c-0.5,0-0.9-0.1-1.4-0.3C56,53.8,50,51,44.1,48.2
	c-1.5-0.7-3-1.4-4.5-2.1c-0.5-0.2-0.8-0.7-0.8-1.2C38.8,38.4,38.8,31.9,38.8,25.5"/>
<path id="Path_67" class="st0" d="M62.2,58.4c-1.1,0.5-2.1,1-3,1.4c-5.9,2.8-11.8,5.5-17.7,8.3c-0.7,0.4-1.5,0.4-2.2,0.1
	c-0.4-0.1-0.6-0.5-0.6-0.9c0-6.6,0-13.1,0-19.7c0-0.1,0-0.2,0-0.3L62.2,58.4"/>
<path id="Path_68" class="st3" d="M39.5,4.9c-0.4,0.1-0.7,0.6-0.7,1c0,6.5,0,13,0,19.5c0,6.5,0,12.9,0,19.4c0,0.5,0.3,1.1,0.8,1.2
	c1.5,0.7,3,1.4,4.5,2.1C50,51,56,53.8,62,56.6c0.4,0.2,0.9,0.3,1.4,0.3c1-0.1,1.4-0.5,1.4-1.5c0-12.8,0-25.7,0-38.5
	c0.1-0.6-0.3-1.2-0.9-1.4c-4-1.9-8-3.8-12.1-5.7C48.3,8.3,44.9,6.6,41.4,5c-0.3-0.2-0.7-0.3-1.1-0.3C40,4.8,39.7,4.8,39.5,4.9"/>
<linearGradient id="Path_69_00000052096062459322545140000003416729821188265658_" gradientUnits="userSpaceOnUse" x1="17.8071" y1="243.2395" x2="17.8071" y2="242.2395" gradientTransform="matrix(26.1611 0 0 -35.7046 -450.9624 8689.5186)">
	<stop  offset="0" style="stop-color:#B4E66E"/>
	<stop  offset="0.182" style="stop-color:#AEDF6E"/>
	<stop  offset="0.433" style="stop-color:#9FCD6E"/>
	<stop  offset="0.725" style="stop-color:#86B06F"/>
	<stop  offset="0.815" style="stop-color:#7DA670"/>
	<stop  offset="1" style="stop-color:#7DA670"/>
</linearGradient>
<path id="Path_69" style="fill:url(#Path_69_00000052096062459322545140000003416729821188265658_);" d="M24.8,5.2
	C17.4,8.7,10,12.2,2.6,15.6c-0.5,0.2-0.7,0.6-0.7,1.1c0,3.7,0,7.5,0,11.2c0,3.8,0,7.5,0,11.3c-0.1,0.5,0.2,1,0.7,1.1
	c0.7,0.2,1.4,0.2,2-0.2c7.5-3.5,15-7,22.4-10.5c0.5-0.2,0.8-0.6,0.7-1.1c0-7.4,0-14.9,0-22.3c0-0.8-0.3-1.2-1.1-1.3
	c-0.1,0-0.3,0-0.4,0C25.8,4.8,25.2,5,24.8,5.2"/>
<path id="Path_70" class="st0" d="M69.2,2.7H70v5.8h-0.8V2.7z M69.5,5.3h2c0.1,0,0.3,0,0.4-0.1C72,5.1,72.1,5,72.2,4.9
	c0.1-0.1,0.1-0.3,0.1-0.5c0-0.2,0-0.3-0.1-0.5c-0.1-0.1-0.2-0.2-0.3-0.3c-0.1-0.1-0.3-0.1-0.4-0.1h-2V2.7h1.9c0.3,0,0.6,0.1,0.9,0.2
	c0.2,0.1,0.5,0.3,0.6,0.6c0.1,0.3,0.2,0.6,0.2,0.9c0,0.3-0.1,0.6-0.2,0.9c-0.1,0.3-0.3,0.5-0.6,0.6c-0.3,0.1-0.6,0.2-0.9,0.2h-1.9
	L69.5,5.3z M71.1,5.9l0.8-0.2l1.5,2.8h-1L71.1,5.9z"/>
<path id="Path_71" class="st0" d="M70.9,11.3c-3.1,0-5.6-2.5-5.6-5.7c0-3.1,2.5-5.7,5.6-5.7c3.1,0,5.6,2.5,5.6,5.7
	C76.5,8.8,74,11.3,70.9,11.3z M70.9,0.6c-2.8,0-5,2.3-5,5.1c0,2.8,2.3,5.1,5,5.1c2.8,0,5-2.3,5-5.1C75.9,2.9,73.7,0.6,70.9,0.6z"/>
</svg>
